<?xml version="1.0" encoding="utf-8"?>
<!-- Generator: Adobe Illustrator 16.0.4, SVG Export Plug-In . SVG Version: 6.00 Build 0)  -->
<!DOCTYPE svg PUBLIC "-//W3C//DTD SVG 1.1//EN" "http://www.w3.org/Graphics/SVG/1.1/DTD/svg11.dtd">
<svg version="1.1" xmlns="http://www.w3.org/2000/svg" xmlns:xlink="http://www.w3.org/1999/xlink" x="0px" y="0px"
	 width="310.687px" height="125.954px" viewBox="0 0 310.687 125.954" enable-background="new 0 0 310.687 125.954"
	 xml:space="preserve">
<g id="Layer_1">
	<g>
		<g>
			<g>
				<circle fill="#d3d3d3" cx="140.06" cy="122.638" r="0.794"/>
				<path fill="#d3d3d3" d="M140.855,114.676c0-0.441-0.355-0.799-0.794-0.797c-0.44-0.001-0.796,0.355-0.796,0.797
					c0,0.436,0.355,0.791,0.796,0.791C140.5,115.467,140.855,115.111,140.855,114.676z"/>
				<circle fill="#d3d3d3" cx="140.06" cy="106.711" r="0.794"/>
				<circle fill="#d3d3d3" cx="140.06" cy="98.748" r="0.795"/>
				<circle fill="#d3d3d3" cx="140.06" cy="90.785" r="0.795"/>
				<path fill="#d3d3d3" d="M140.854,82.822c0-0.439-0.355-0.797-0.794-0.797c-0.438,0-0.795,0.357-0.795,0.797
					c0,0.437,0.356,0.793,0.795,0.793C140.499,83.615,140.855,83.258,140.854,82.822z"/>
				<circle fill="#d3d3d3" cx="140.06" cy="74.859" r="0.795"/>
				<path fill="#d3d3d3" d="M140.855,66.896c0-0.439-0.356-0.797-0.793-0.797c-0.44,0-0.796,0.357-0.796,0.797
					c0.001,0.436,0.357,0.792,0.796,0.793C140.5,67.689,140.855,67.334,140.855,66.896z"/>
				<circle fill="#d3d3d3" cx="148.023" cy="122.637" r="0.795"/>
				<path fill="#d3d3d3" d="M148.819,114.676c0-0.441-0.356-0.799-0.795-0.797c-0.44-0.001-0.795,0.355-0.794,0.797
					c-0.001,0.436,0.355,0.791,0.794,0.793C148.462,115.467,148.818,115.111,148.819,114.676z"/>
				<circle fill="#d3d3d3" cx="148.023" cy="106.712" r="0.795"/>
				<path fill="#d3d3d3" d="M148.818,98.748c0-0.439-0.356-0.798-0.794-0.797c-0.439-0.001-0.795,0.357-0.795,0.798
					c0,0.437,0.356,0.792,0.795,0.792S148.818,99.186,148.818,98.748z"/>
				<path fill="#d3d3d3" d="M148.818,90.785c0.001-0.438-0.356-0.797-0.794-0.797c-0.439,0-0.795,0.359-0.795,0.797
					c0,0.437,0.356,0.795,0.795,0.795C148.461,91.58,148.818,91.222,148.818,90.785z"/>
				<path fill="#d3d3d3" d="M148.818,82.822c0-0.439-0.356-0.797-0.794-0.797c-0.439,0-0.795,0.357-0.796,0.797
					c0,0.437,0.356,0.793,0.795,0.793C148.462,83.615,148.818,83.259,148.818,82.822z"/>
				<circle fill="#d3d3d3" cx="148.023" cy="74.859" r="0.795"/>
				<path fill="#d3d3d3" d="M148.818,66.896c0-0.438-0.355-0.796-0.794-0.796c-0.44,0-0.795,0.357-0.795,0.796
					c0,0.437,0.356,0.793,0.796,0.793C148.462,67.688,148.817,67.333,148.818,66.896z"/>
				<circle fill="#d3d3d3" cx="155.987" cy="122.637" r="0.795"/>
				<path fill="#d3d3d3" d="M156.781,114.676c0-0.441-0.355-0.798-0.793-0.798c-0.44-0.001-0.795,0.356-0.795,0.798
					c0,0.436,0.355,0.791,0.795,0.792C156.426,115.467,156.781,115.111,156.781,114.676z"/>
				<circle fill="#d3d3d3" cx="155.986" cy="106.711" r="0.795"/>
				<path fill="#d3d3d3" d="M156.781,98.749c0-0.44-0.356-0.798-0.794-0.799c-0.44-0.001-0.795,0.358-0.795,0.798
					c0,0.438,0.355,0.793,0.795,0.793C156.426,99.541,156.782,99.186,156.781,98.749z"/>
				<circle fill="#d3d3d3" cx="155.987" cy="90.785" r="0.795"/>
				<path fill="#d3d3d3" d="M156.781,82.822c0-0.439-0.356-0.797-0.794-0.797c-0.44,0-0.795,0.357-0.796,0.797
					c0,0.436,0.357,0.793,0.796,0.793C156.425,83.615,156.781,83.259,156.781,82.822z"/>
				<circle fill="#d3d3d3" cx="155.987" cy="74.859" r="0.795"/>
				<path fill="#d3d3d3" d="M156.781,66.896c0-0.438-0.355-0.796-0.794-0.797c-0.439,0.001-0.795,0.358-0.795,0.798
					c0,0.438,0.355,0.793,0.795,0.792C156.425,67.688,156.781,67.332,156.781,66.896z"/>
				<circle fill="#d3d3d3" cx="163.949" cy="122.638" r="0.795"/>
				<path fill="#d3d3d3" d="M164.744,114.676c0-0.441-0.355-0.799-0.793-0.797c-0.44-0.001-0.796,0.355-0.796,0.797
					c0,0.436,0.356,0.791,0.796,0.792C164.388,115.467,164.745,115.111,164.744,114.676z"/>
				<circle fill="#d3d3d3" cx="163.949" cy="106.711" r="0.795"/>
				<circle fill="#d3d3d3" cx="163.949" cy="98.748" r="0.795"/>
				<path fill="#d3d3d3" d="M164.745,90.785c0-0.438-0.356-0.797-0.794-0.797c-0.44,0-0.795,0.359-0.796,0.797
					c0,0.437,0.356,0.794,0.796,0.795C164.388,91.58,164.744,91.223,164.745,90.785z"/>
				<path fill="#d3d3d3" d="M164.745,82.822c-0.001-0.439-0.356-0.797-0.794-0.797c-0.439,0.001-0.796,0.357-0.795,0.797
					c0,0.437,0.356,0.793,0.795,0.793C164.388,83.615,164.744,83.26,164.745,82.822z"/>
				<circle fill="#d3d3d3" cx="163.95" cy="74.859" r="0.795"/>
				<path fill="#d3d3d3" d="M164.745,66.896c0-0.44-0.356-0.797-0.794-0.797c-0.44,0-0.796,0.357-0.796,0.797
					c0,0.437,0.356,0.793,0.795,0.792C164.389,67.688,164.744,67.333,164.745,66.896z"/>
				<circle fill="#d3d3d3" cx="171.912" cy="122.638" r="0.795"/>
				<path fill="#d3d3d3" d="M172.707,114.676c0-0.44-0.355-0.798-0.793-0.797c-0.439-0.002-0.796,0.356-0.796,0.797
					c0,0.436,0.356,0.791,0.795,0.791C172.352,115.468,172.708,115.111,172.707,114.676z"/>
				<circle fill="#d3d3d3" cx="171.912" cy="106.711" r="0.795"/>
				<circle fill="#d3d3d3" cx="171.912" cy="98.748" r="0.795"/>
				<circle fill="#d3d3d3" cx="171.913" cy="90.785" r="0.795"/>
				<circle fill="#d3d3d3" cx="171.913" cy="82.822" r="0.795"/>
				<circle fill="#d3d3d3" cx="171.913" cy="74.859" r="0.795"/>
				<path fill="#d3d3d3" d="M172.708,66.896c-0.001-0.439-0.356-0.797-0.795-0.796c-0.439,0-0.795,0.355-0.795,0.796
					c0,0.437,0.356,0.794,0.795,0.794C172.352,67.688,172.707,67.333,172.708,66.896z"/>
				<path fill="#d3d3d3" d="M180.67,122.639c0.001-0.441-0.356-0.798-0.794-0.798s-0.794,0.356-0.795,0.797
					c0,0.438,0.356,0.792,0.795,0.792C180.314,123.43,180.67,123.076,180.67,122.639z"/>
				<path fill="#d3d3d3" d="M180.67,114.676c0-0.441-0.356-0.799-0.794-0.799c-0.439,0-0.795,0.357-0.795,0.799
					c0,0.436,0.356,0.791,0.795,0.791C180.314,115.467,180.67,115.111,180.67,114.676z"/>
				<circle fill="#d3d3d3" cx="179.875" cy="106.711" r="0.795"/>
				<path fill="#d3d3d3" d="M180.67,98.748c0-0.439-0.356-0.799-0.794-0.799c-0.44,0.001-0.796,0.359-0.795,0.799
					c0,0.437,0.356,0.793,0.795,0.793C180.315,99.541,180.669,99.186,180.67,98.748z"/>
				<circle fill="#d3d3d3" cx="179.875" cy="90.785" r="0.795"/>
				<circle fill="#d3d3d3" cx="179.876" cy="82.822" r="0.795"/>
				<circle fill="#d3d3d3" cx="179.876" cy="74.859" r="0.795"/>
				<path fill="#d3d3d3" d="M180.67,66.896c0-0.441-0.355-0.797-0.794-0.797c-0.438,0-0.795,0.356-0.794,0.797
					c0,0.437,0.355,0.793,0.794,0.792C180.314,67.688,180.67,67.332,180.67,66.896z"/>
				<circle fill="#d3d3d3" cx="187.838" cy="122.638" r="0.795"/>
				<path fill="#d3d3d3" d="M188.633,114.676c0-0.44-0.356-0.798-0.794-0.799c-0.439,0.002-0.796,0.358-0.796,0.799
					c0.001,0.436,0.356,0.791,0.796,0.791C188.277,115.467,188.633,115.111,188.633,114.676z"/>
				<circle fill="#d3d3d3" cx="187.838" cy="106.711" r="0.795"/>
				<path fill="#d3d3d3" d="M188.633,98.748c0-0.439-0.355-0.797-0.794-0.799c-0.439,0.002-0.796,0.359-0.796,0.799
					c0,0.438,0.356,0.793,0.796,0.793C188.278,99.541,188.633,99.186,188.633,98.748z"/>
				<circle fill="#d3d3d3" cx="187.838" cy="90.785" r="0.795"/>
				<circle fill="#d3d3d3" cx="187.838" cy="82.821" r="0.795"/>
				<circle fill="#d3d3d3" cx="187.839" cy="74.859" r="0.794"/>
				<path fill="#d3d3d3" d="M188.633,66.896c0-0.44-0.355-0.797-0.794-0.797c-0.439,0-0.796,0.356-0.796,0.797
					c0,0.437,0.355,0.792,0.796,0.793C188.278,67.688,188.633,67.333,188.633,66.896z"/>
				<path fill="#d3d3d3" d="M196.596,122.638c0-0.44-0.355-0.797-0.793-0.797c-0.439-0.001-0.796,0.356-0.795,0.798
					c0,0.438,0.356,0.791,0.795,0.792C196.24,123.43,196.598,123.076,196.596,122.638z"/>
				<path fill="#d3d3d3" d="M196.596,114.676c0-0.441-0.355-0.799-0.793-0.798c-0.439,0.001-0.796,0.356-0.795,0.798
					c0,0.436,0.356,0.791,0.795,0.791C196.24,115.467,196.596,115.111,196.596,114.676z"/>
				<circle fill="#d3d3d3" cx="195.802" cy="106.711" r="0.795"/>
				<path fill="#d3d3d3" d="M196.596,98.748c0-0.439-0.355-0.798-0.793-0.798c-0.439,0.001-0.795,0.358-0.796,0.798
					c0,0.438,0.357,0.793,0.796,0.793C196.24,99.541,196.596,99.186,196.596,98.748z"/>
				<circle fill="#d3d3d3" cx="195.802" cy="90.785" r="0.795"/>
				<circle fill="#d3d3d3" cx="195.801" cy="82.822" r="0.795"/>
				<circle fill="#d3d3d3" cx="195.801" cy="74.859" r="0.795"/>
				<path fill="#d3d3d3" d="M196.596,66.896c0-0.439-0.355-0.798-0.793-0.797c-0.439,0-0.795,0.355-0.796,0.797
					c0.001,0.436,0.357,0.792,0.796,0.793C196.24,67.688,196.596,67.333,196.596,66.896z"/>
				<circle fill="#d3d3d3" cx="203.766" cy="122.638" r="0.795"/>
				<path fill="#d3d3d3" d="M204.559,114.676c0-0.441-0.355-0.799-0.793-0.799c-0.441,0-0.797,0.357-0.795,0.799
					c-0.002,0.436,0.355,0.792,0.795,0.791C204.203,115.467,204.559,115.111,204.559,114.676z"/>
				<circle fill="#d3d3d3" cx="203.764" cy="106.711" r="0.795"/>
				<path fill="#d3d3d3" d="M204.561,98.748c-0.002-0.439-0.357-0.797-0.797-0.797c-0.438-0.001-0.793,0.357-0.793,0.797
					c-0.002,0.438,0.355,0.793,0.793,0.793C204.203,99.541,204.559,99.186,204.561,98.748z"/>
				<circle fill="#d3d3d3" cx="203.764" cy="90.785" r="0.795"/>
				<circle fill="#d3d3d3" cx="203.764" cy="82.822" r="0.795"/>
				<circle fill="#d3d3d3" cx="203.764" cy="74.859" r="0.795"/>
				<path fill="#d3d3d3" d="M204.559,66.896c0-0.438-0.355-0.796-0.793-0.796c-0.439-0.001-0.795,0.356-0.797,0.796
					c0.002,0.438,0.357,0.793,0.797,0.794C204.203,67.689,204.559,67.332,204.559,66.896z"/>
				<circle fill="#d3d3d3" cx="211.729" cy="122.638" r="0.795"/>
				<path fill="#d3d3d3" d="M212.521,114.676c0-0.441-0.355-0.798-0.793-0.799c-0.439,0.002-0.795,0.358-0.795,0.799
					c0,0.436,0.355,0.792,0.795,0.791C212.166,115.467,212.521,115.111,212.521,114.676z"/>
				<circle fill="#d3d3d3" cx="211.729" cy="106.711" r="0.795"/>
				<path fill="#d3d3d3" d="M212.521,98.748c0-0.439-0.355-0.798-0.793-0.798c-0.439,0.001-0.795,0.358-0.795,0.799
					c0,0.437,0.355,0.792,0.795,0.792C212.166,99.541,212.521,99.186,212.521,98.748z"/>
				<circle fill="#d3d3d3" cx="211.728" cy="90.785" r="0.794"/>
				<circle fill="#d3d3d3" cx="211.728" cy="82.822" r="0.794"/>
				<circle fill="#d3d3d3" cx="211.728" cy="74.859" r="0.794"/>
				<circle fill="#d3d3d3" cx="211.728" cy="66.896" r="0.794"/>
				<path fill="#d3d3d3" d="M220.484,122.637c0-0.439-0.355-0.796-0.793-0.797c-0.439,0.001-0.797,0.357-0.797,0.797
					c0.002,0.439,0.357,0.793,0.797,0.793C220.129,123.43,220.486,123.076,220.484,122.637z"/>
				<path fill="#d3d3d3" d="M220.484,114.676c0-0.441-0.355-0.799-0.793-0.797c-0.439-0.002-0.795,0.355-0.795,0.797
					c0,0.436,0.355,0.791,0.795,0.793C220.129,115.467,220.484,115.111,220.484,114.676z"/>
				<circle fill="#d3d3d3" cx="219.691" cy="106.712" r="0.795"/>
				<path fill="#d3d3d3" d="M220.484,98.748c0-0.439-0.355-0.799-0.793-0.797c-0.439,0-0.797,0.357-0.795,0.798
					c-0.002,0.437,0.355,0.792,0.795,0.792C220.129,99.541,220.484,99.186,220.484,98.748z"/>
				<path fill="#d3d3d3" d="M220.484,90.785c0-0.439-0.355-0.797-0.793-0.797c-0.439,0-0.795,0.359-0.797,0.797
					c0.002,0.437,0.357,0.795,0.797,0.795C220.129,91.578,220.484,91.223,220.484,90.785z"/>
				<path fill="#d3d3d3" d="M220.486,82.822c-0.002-0.439-0.357-0.797-0.795-0.797c-0.439,0-0.795,0.357-0.795,0.797
					c0,0.437,0.355,0.793,0.795,0.793C220.129,83.615,220.484,83.258,220.486,82.822z"/>
				<path fill="#d3d3d3" d="M220.484,74.859c0-0.439-0.355-0.797-0.793-0.797c-0.439,0-0.795,0.357-0.797,0.797
					c0.002,0.438,0.357,0.793,0.797,0.793C220.129,75.652,220.486,75.297,220.484,74.859z"/>
				<circle fill="#d3d3d3" cx="219.69" cy="66.896" r="0.794"/>
				<circle fill="#d3d3d3" cx="227.654" cy="122.637" r="0.795"/>
				<path fill="#d3d3d3" d="M228.447,114.676c0.002-0.441-0.354-0.797-0.793-0.797c-0.439-0.002-0.795,0.355-0.797,0.797
					c0.002,0.436,0.357,0.791,0.797,0.792S228.449,115.111,228.447,114.676z"/>
				<circle fill="#d3d3d3" cx="227.654" cy="106.712" r="0.795"/>
				<path fill="#d3d3d3" d="M228.449,98.749c-0.002-0.44-0.357-0.8-0.795-0.798c-0.439-0.002-0.795,0.357-0.795,0.798
					c0,0.437,0.355,0.792,0.795,0.792S228.449,99.186,228.449,98.749z"/>
				<path fill="#d3d3d3" d="M228.449,90.785c-0.002-0.438-0.355-0.797-0.795-0.797s-0.795,0.357-0.795,0.797
					c0,0.437,0.355,0.793,0.795,0.795C228.094,91.58,228.449,91.222,228.449,90.785z"/>
				<path fill="#d3d3d3" d="M228.449,82.822c-0.002-0.439-0.355-0.797-0.795-0.797s-0.797,0.357-0.795,0.797
					c0,0.437,0.355,0.793,0.795,0.793S228.449,83.259,228.449,82.822z"/>
				<circle fill="#d3d3d3" cx="227.654" cy="74.859" r="0.795"/>
				<path fill="#d3d3d3" d="M228.449,66.896c-0.002-0.438-0.355-0.796-0.795-0.796s-0.795,0.357-0.795,0.796
					c-0.002,0.437,0.355,0.794,0.795,0.793C228.094,67.689,228.447,67.333,228.449,66.896z"/>
				<circle fill="#d3d3d3" cx="235.617" cy="122.638" r="0.795"/>
				<path fill="#d3d3d3" d="M236.412,114.676c0-0.44-0.355-0.798-0.795-0.797c-0.439,0-0.795,0.356-0.795,0.797
					c0,0.436,0.355,0.793,0.795,0.791C236.057,115.467,236.412,115.111,236.412,114.676z"/>
				<circle fill="#d3d3d3" cx="235.617" cy="106.711" r="0.795"/>
				<path fill="#d3d3d3" d="M236.412,98.748c0-0.439-0.355-0.799-0.795-0.798s-0.795,0.358-0.795,0.798
					c0,0.438,0.355,0.793,0.795,0.793S236.412,99.186,236.412,98.748z"/>
				<circle fill="#d3d3d3" cx="235.617" cy="90.785" r="0.795"/>
				<circle fill="#d3d3d3" cx="235.617" cy="82.822" r="0.795"/>
				<circle fill="#d3d3d3" cx="235.617" cy="74.859" r="0.795"/>
				<path fill="#d3d3d3" d="M236.412,66.896c0-0.439-0.355-0.797-0.795-0.798c-0.439,0.001-0.795,0.357-0.795,0.798
					c0,0.437,0.355,0.792,0.795,0.792C236.057,67.689,236.412,67.333,236.412,66.896z"/>
				<path fill="#d3d3d3" d="M244.375,122.638c0-0.44-0.355-0.796-0.793-0.797c-0.441,0-0.797,0.357-0.795,0.797
					c-0.002,0.438,0.354,0.793,0.795,0.793C244.02,123.43,244.375,123.076,244.375,122.638z"/>
				<path fill="#d3d3d3" d="M244.375,114.676c0-0.44-0.355-0.799-0.795-0.797c-0.439,0-0.793,0.356-0.795,0.797
					c0,0.436,0.357,0.792,0.795,0.791C244.02,115.467,244.375,115.111,244.375,114.676z"/>
				<circle fill="#d3d3d3" cx="243.58" cy="106.711" r="0.795"/>
				<circle fill="#d3d3d3" cx="243.581" cy="98.748" r="0.794"/>
				<circle fill="#d3d3d3" cx="243.58" cy="90.785" r="0.795"/>
				<path fill="#d3d3d3" d="M244.375,82.822c0-0.439-0.355-0.797-0.795-0.797c-0.438,0-0.795,0.357-0.795,0.797
					c0,0.437,0.355,0.793,0.795,0.793S244.375,83.26,244.375,82.822z"/>
				<circle fill="#d3d3d3" cx="243.58" cy="74.859" r="0.795"/>
				<path fill="#d3d3d3" d="M244.375,66.896c0-0.439-0.355-0.797-0.795-0.797s-0.795,0.357-0.793,0.797
					c-0.002,0.436,0.355,0.792,0.793,0.793C244.02,67.689,244.375,67.333,244.375,66.896z"/>
				<circle fill="#d3d3d3" cx="251.544" cy="122.637" r="0.794"/>
				<path fill="#d3d3d3" d="M252.34,114.676c-0.002-0.441-0.357-0.797-0.797-0.797c-0.439-0.002-0.793,0.356-0.793,0.797
					c0,0.436,0.354,0.791,0.795,0.792C251.982,115.468,252.338,115.111,252.34,114.676z"/>
				<path fill="#d3d3d3" d="M252.338,106.711c0-0.438-0.355-0.796-0.795-0.797c-0.439,0-0.793,0.359-0.793,0.797
					c0,0.439,0.354,0.795,0.795,0.795C251.98,107.506,252.338,107.149,252.338,106.711z"/>
				<path fill="#d3d3d3" d="M252.338,98.749c0-0.44-0.355-0.799-0.793-0.799c-0.439,0-0.795,0.358-0.795,0.798
					c0,0.438,0.354,0.793,0.793,0.793S252.338,99.186,252.338,98.749z"/>
				<circle fill="#d3d3d3" cx="251.544" cy="90.785" r="0.794"/>
				<circle fill="#d3d3d3" cx="251.544" cy="82.822" r="0.794"/>
				<circle fill="#d3d3d3" cx="251.544" cy="74.859" r="0.794"/>
				<path fill="#d3d3d3" d="M252.338,66.896c0-0.438-0.355-0.797-0.793-0.797c-0.441,0.001-0.795,0.357-0.795,0.798
					c0,0.437,0.355,0.792,0.795,0.792C251.982,67.688,252.338,67.334,252.338,66.896z"/>
			</g>
			<g>
				<circle fill="#d3d3d3" cx="140.06" cy="59.769" r="0.794"/>
				<path fill="#d3d3d3" d="M140.855,51.807c0-0.441-0.355-0.799-0.794-0.797c-0.44-0.001-0.796,0.355-0.796,0.797
					c0,0.436,0.355,0.791,0.796,0.791C140.5,52.598,140.855,52.242,140.855,51.807z"/>
				<circle fill="#d3d3d3" cx="140.06" cy="43.842" r="0.794"/>
				<circle fill="#d3d3d3" cx="140.06" cy="35.879" r="0.795"/>
				<circle fill="#d3d3d3" cx="140.06" cy="27.916" r="0.795"/>
				<path fill="#d3d3d3" d="M140.854,19.953c0-0.439-0.355-0.797-0.794-0.797c-0.438,0-0.795,0.357-0.795,0.797
					c0,0.437,0.356,0.793,0.795,0.793C140.499,20.746,140.855,20.389,140.854,19.953z"/>
				<circle fill="#d3d3d3" cx="140.06" cy="11.99" r="0.795"/>
				<path fill="#d3d3d3" d="M140.855,4.027c0-0.439-0.356-0.797-0.793-0.797c-0.44,0-0.796,0.357-0.796,0.797
					c0.001,0.436,0.357,0.792,0.796,0.793C140.5,4.82,140.855,4.465,140.855,4.027z"/>
				<circle fill="#d3d3d3" cx="148.023" cy="59.768" r="0.795"/>
				<path fill="#d3d3d3" d="M148.819,51.807c0-0.441-0.356-0.799-0.795-0.797c-0.44-0.001-0.795,0.355-0.794,0.797
					c-0.001,0.436,0.355,0.791,0.794,0.793C148.462,52.598,148.818,52.242,148.819,51.807z"/>
				<circle fill="#d3d3d3" cx="148.023" cy="43.843" r="0.795"/>
				<path fill="#d3d3d3" d="M148.818,35.879c0-0.439-0.356-0.798-0.794-0.797c-0.439-0.001-0.795,0.357-0.795,0.798
					c0,0.437,0.356,0.792,0.795,0.792S148.818,36.316,148.818,35.879z"/>
				<path fill="#d3d3d3" d="M148.818,27.916c0.001-0.438-0.356-0.797-0.794-0.797c-0.439,0-0.795,0.359-0.795,0.797
					c0,0.437,0.356,0.795,0.795,0.795C148.461,28.711,148.818,28.353,148.818,27.916z"/>
				<path fill="#d3d3d3" d="M148.818,19.953c0-0.439-0.356-0.797-0.794-0.797c-0.439,0-0.795,0.357-0.796,0.797
					c0,0.437,0.356,0.793,0.795,0.793C148.462,20.746,148.818,20.39,148.818,19.953z"/>
				<circle fill="#d3d3d3" cx="148.023" cy="11.99" r="0.795"/>
				<path fill="#d3d3d3" d="M148.818,4.026c0-0.438-0.355-0.796-0.794-0.796c-0.44,0-0.795,0.357-0.795,0.796
					c0,0.437,0.356,0.793,0.796,0.793C148.462,4.819,148.817,4.464,148.818,4.026z"/>
				<circle fill="#d3d3d3" cx="155.987" cy="59.768" r="0.795"/>
				<path fill="#d3d3d3" d="M156.781,51.807c0-0.441-0.355-0.798-0.793-0.798c-0.44-0.001-0.795,0.356-0.795,0.798
					c0,0.436,0.355,0.791,0.795,0.792C156.426,52.598,156.781,52.242,156.781,51.807z"/>
				<circle fill="#d3d3d3" cx="155.986" cy="43.842" r="0.795"/>
				<path fill="#d3d3d3" d="M156.781,35.88c0-0.44-0.356-0.798-0.794-0.799c-0.44-0.001-0.795,0.358-0.795,0.798
					c0,0.438,0.355,0.793,0.795,0.793C156.426,36.672,156.782,36.316,156.781,35.88z"/>
				<circle fill="#d3d3d3" cx="155.987" cy="27.916" r="0.795"/>
				<path fill="#d3d3d3" d="M156.781,19.953c0-0.439-0.356-0.797-0.794-0.797c-0.44,0-0.795,0.357-0.796,0.797
					c0,0.436,0.357,0.793,0.796,0.793C156.425,20.746,156.781,20.39,156.781,19.953z"/>
				<circle fill="#d3d3d3" cx="155.987" cy="11.99" r="0.795"/>
				<path fill="#d3d3d3" d="M156.781,4.026c0-0.438-0.355-0.796-0.794-0.797c-0.439,0.001-0.795,0.358-0.795,0.798
					c0,0.438,0.355,0.793,0.795,0.792C156.425,4.819,156.781,4.463,156.781,4.026z"/>
				<circle fill="#d3d3d3" cx="163.949" cy="59.769" r="0.795"/>
				<path fill="#d3d3d3" d="M164.744,51.807c0-0.441-0.355-0.799-0.793-0.797c-0.44-0.001-0.796,0.355-0.796,0.797
					c0,0.436,0.356,0.791,0.796,0.792C164.388,52.598,164.745,52.242,164.744,51.807z"/>
				<circle fill="#d3d3d3" cx="163.949" cy="43.842" r="0.795"/>
				<circle fill="#d3d3d3" cx="163.949" cy="35.879" r="0.795"/>
				<path fill="#d3d3d3" d="M164.745,27.916c0-0.438-0.356-0.797-0.794-0.797c-0.44,0-0.795,0.359-0.796,0.797
					c0,0.437,0.356,0.794,0.796,0.795C164.388,28.711,164.744,28.354,164.745,27.916z"/>
				<path fill="#d3d3d3" d="M164.745,19.953c-0.001-0.439-0.356-0.797-0.794-0.797c-0.439,0.001-0.796,0.357-0.795,0.797
					c0,0.437,0.356,0.793,0.795,0.793C164.388,20.746,164.744,20.391,164.745,19.953z"/>
				<circle fill="#d3d3d3" cx="163.95" cy="11.99" r="0.795"/>
				<path fill="#d3d3d3" d="M164.745,4.027c0-0.44-0.356-0.797-0.794-0.797c-0.44,0-0.796,0.357-0.796,0.797
					c0,0.437,0.356,0.793,0.795,0.792C164.389,4.819,164.744,4.464,164.745,4.027z"/>
				<circle fill="#d3d3d3" cx="171.912" cy="59.769" r="0.795"/>
				<path fill="#d3d3d3" d="M172.707,51.807c0-0.44-0.355-0.798-0.793-0.797c-0.439-0.002-0.796,0.356-0.796,0.797
					c0,0.436,0.356,0.791,0.795,0.791C172.352,52.599,172.708,52.242,172.707,51.807z"/>
				<circle fill="#d3d3d3" cx="171.912" cy="43.842" r="0.795"/>
				<circle fill="#d3d3d3" cx="171.912" cy="35.879" r="0.795"/>
				<circle fill="#d3d3d3" cx="171.913" cy="27.916" r="0.795"/>
				<circle fill="#d3d3d3" cx="171.913" cy="19.953" r="0.795"/>
				<circle fill="#d3d3d3" cx="171.913" cy="11.99" r="0.795"/>
				<path fill="#d3d3d3" d="M172.708,4.026c-0.001-0.439-0.356-0.797-0.795-0.796c-0.439,0-0.795,0.355-0.795,0.796
					c0,0.437,0.356,0.794,0.795,0.794C172.352,4.819,172.707,4.464,172.708,4.026z"/>
				<path fill="#d3d3d3" d="M180.67,59.77c0.001-0.441-0.356-0.798-0.794-0.798s-0.794,0.356-0.795,0.797
					c0,0.438,0.356,0.792,0.795,0.792C180.314,60.561,180.67,60.207,180.67,59.77z"/>
				<path fill="#d3d3d3" d="M180.67,51.807c0-0.441-0.356-0.799-0.794-0.799c-0.439,0-0.795,0.357-0.795,0.799
					c0,0.436,0.356,0.791,0.795,0.791C180.314,52.598,180.67,52.242,180.67,51.807z"/>
				<circle fill="#d3d3d3" cx="179.875" cy="43.842" r="0.795"/>
				<path fill="#d3d3d3" d="M180.67,35.879c0-0.439-0.356-0.799-0.794-0.799c-0.44,0.001-0.796,0.359-0.795,0.799
					c0,0.437,0.356,0.793,0.795,0.793C180.315,36.672,180.669,36.316,180.67,35.879z"/>
				<circle fill="#d3d3d3" cx="179.875" cy="27.916" r="0.795"/>
				<circle fill="#d3d3d3" cx="179.876" cy="19.953" r="0.795"/>
				<circle fill="#d3d3d3" cx="179.876" cy="11.99" r="0.795"/>
				<path fill="#d3d3d3" d="M180.67,4.027c0-0.441-0.355-0.797-0.794-0.797c-0.438,0-0.795,0.356-0.794,0.797
					c0,0.437,0.355,0.793,0.794,0.792C180.314,4.819,180.67,4.463,180.67,4.027z"/>
				<circle fill="#d3d3d3" cx="187.838" cy="59.769" r="0.795"/>
				<path fill="#d3d3d3" d="M188.633,51.807c0-0.44-0.356-0.798-0.794-0.799c-0.439,0.002-0.796,0.358-0.796,0.799
					c0.001,0.436,0.356,0.791,0.796,0.791C188.277,52.598,188.633,52.242,188.633,51.807z"/>
				<circle fill="#d3d3d3" cx="187.838" cy="43.842" r="0.795"/>
				<path fill="#d3d3d3" d="M188.633,35.879c0-0.439-0.355-0.797-0.794-0.799c-0.439,0.002-0.796,0.359-0.796,0.799
					c0,0.438,0.356,0.793,0.796,0.793C188.278,36.672,188.633,36.316,188.633,35.879z"/>
				<circle fill="#d3d3d3" cx="187.838" cy="27.916" r="0.795"/>
				<circle fill="#d3d3d3" cx="187.838" cy="19.952" r="0.795"/>
				<circle fill="#d3d3d3" cx="187.839" cy="11.99" r="0.794"/>
				<path fill="#d3d3d3" d="M188.633,4.027c0-0.44-0.355-0.797-0.794-0.797c-0.439,0-0.796,0.356-0.796,0.797
					c0,0.437,0.355,0.792,0.796,0.793C188.278,4.819,188.633,4.464,188.633,4.027z"/>
				<path fill="#d3d3d3" d="M196.596,59.769c0-0.44-0.355-0.797-0.793-0.797c-0.439-0.001-0.796,0.356-0.795,0.798
					c0,0.438,0.356,0.791,0.795,0.792C196.24,60.561,196.598,60.207,196.596,59.769z"/>
				<path fill="#d3d3d3" d="M196.596,51.807c0-0.441-0.355-0.799-0.793-0.798c-0.439,0.001-0.796,0.356-0.795,0.798
					c0,0.436,0.356,0.791,0.795,0.791C196.24,52.598,196.596,52.242,196.596,51.807z"/>
				<circle fill="#d3d3d3" cx="195.802" cy="43.842" r="0.795"/>
				<path fill="#d3d3d3" d="M196.596,35.879c0-0.439-0.355-0.798-0.793-0.798c-0.439,0.001-0.795,0.358-0.796,0.798
					c0,0.438,0.357,0.793,0.796,0.793C196.24,36.672,196.596,36.316,196.596,35.879z"/>
				<circle fill="#d3d3d3" cx="195.802" cy="27.916" r="0.795"/>
				<circle fill="#d3d3d3" cx="195.801" cy="19.953" r="0.795"/>
				<circle fill="#d3d3d3" cx="195.801" cy="11.99" r="0.795"/>
				<path fill="#d3d3d3" d="M196.596,4.027c0-0.439-0.355-0.798-0.793-0.797c-0.439,0-0.795,0.355-0.796,0.797
					c0.001,0.436,0.357,0.792,0.796,0.793C196.24,4.819,196.596,4.464,196.596,4.027z"/>
				<circle fill="#d3d3d3" cx="203.766" cy="59.769" r="0.795"/>
				<path fill="#d3d3d3" d="M204.559,51.807c0-0.441-0.355-0.799-0.793-0.799c-0.441,0-0.797,0.357-0.795,0.799
					c-0.002,0.436,0.355,0.792,0.795,0.791C204.203,52.598,204.559,52.242,204.559,51.807z"/>
				<circle fill="#d3d3d3" cx="203.764" cy="43.842" r="0.795"/>
				<path fill="#d3d3d3" d="M204.561,35.879c-0.002-0.439-0.357-0.797-0.797-0.797c-0.438-0.001-0.793,0.357-0.793,0.797
					c-0.002,0.438,0.355,0.793,0.793,0.793C204.203,36.672,204.559,36.316,204.561,35.879z"/>
				<circle fill="#d3d3d3" cx="203.764" cy="27.916" r="0.795"/>
				<circle fill="#d3d3d3" cx="203.764" cy="19.953" r="0.795"/>
				<circle fill="#d3d3d3" cx="203.764" cy="11.99" r="0.795"/>
				<path fill="#d3d3d3" d="M204.559,4.026c0-0.438-0.355-0.796-0.793-0.796c-0.439-0.001-0.795,0.356-0.797,0.796
					c0.002,0.438,0.357,0.793,0.797,0.794C204.203,4.82,204.559,4.463,204.559,4.026z"/>
				<circle fill="#d3d3d3" cx="211.729" cy="59.769" r="0.795"/>
				<path fill="#d3d3d3" d="M212.521,51.807c0-0.441-0.355-0.798-0.793-0.799c-0.439,0.002-0.795,0.358-0.795,0.799
					c0,0.436,0.355,0.792,0.795,0.791C212.166,52.598,212.521,52.242,212.521,51.807z"/>
				<circle fill="#d3d3d3" cx="211.729" cy="43.842" r="0.795"/>
				<path fill="#d3d3d3" d="M212.521,35.879c0-0.439-0.355-0.798-0.793-0.798c-0.439,0.001-0.795,0.358-0.795,0.799
					c0,0.437,0.355,0.792,0.795,0.792C212.166,36.672,212.521,36.316,212.521,35.879z"/>
				<circle fill="#d3d3d3" cx="211.728" cy="27.916" r="0.794"/>
				<circle fill="#d3d3d3" cx="211.728" cy="19.953" r="0.794"/>
				<circle fill="#d3d3d3" cx="211.728" cy="11.99" r="0.794"/>
				<circle fill="#d3d3d3" cx="211.728" cy="4.026" r="0.794"/>
				<path fill="#d3d3d3" d="M220.484,59.768c0-0.439-0.355-0.796-0.793-0.797c-0.439,0.001-0.797,0.357-0.797,0.797
					c0.002,0.439,0.357,0.793,0.797,0.793C220.129,60.561,220.486,60.207,220.484,59.768z"/>
				<path fill="#d3d3d3" d="M220.484,51.807c0-0.441-0.355-0.799-0.793-0.797c-0.439-0.002-0.795,0.355-0.795,0.797
					c0,0.436,0.355,0.791,0.795,0.793C220.129,52.598,220.484,52.242,220.484,51.807z"/>
				<circle fill="#d3d3d3" cx="219.691" cy="43.843" r="0.795"/>
				<path fill="#d3d3d3" d="M220.484,35.879c0-0.439-0.355-0.799-0.793-0.797c-0.439,0-0.797,0.357-0.795,0.798
					c-0.002,0.437,0.355,0.792,0.795,0.792C220.129,36.672,220.484,36.316,220.484,35.879z"/>
				<path fill="#d3d3d3" d="M220.484,27.916c0-0.439-0.355-0.797-0.793-0.797c-0.439,0-0.795,0.359-0.797,0.797
					c0.002,0.437,0.357,0.795,0.797,0.795C220.129,28.709,220.484,28.354,220.484,27.916z"/>
				<path fill="#d3d3d3" d="M220.486,19.953c-0.002-0.439-0.357-0.797-0.795-0.797c-0.439,0-0.795,0.357-0.795,0.797
					c0,0.437,0.355,0.793,0.795,0.793C220.129,20.746,220.484,20.389,220.486,19.953z"/>
				<path fill="#d3d3d3" d="M220.484,11.99c0-0.439-0.355-0.797-0.793-0.797c-0.439,0-0.795,0.357-0.797,0.797
					c0.002,0.438,0.357,0.793,0.797,0.793C220.129,12.783,220.486,12.428,220.484,11.99z"/>
				<circle fill="#d3d3d3" cx="219.69" cy="4.027" r="0.794"/>
				<circle fill="#d3d3d3" cx="227.654" cy="59.768" r="0.795"/>
				<path fill="#d3d3d3" d="M228.447,51.807c0.002-0.441-0.354-0.797-0.793-0.797c-0.439-0.002-0.795,0.355-0.797,0.797
					c0.002,0.436,0.357,0.791,0.797,0.792S228.449,52.242,228.447,51.807z"/>
				<circle fill="#d3d3d3" cx="227.654" cy="43.843" r="0.795"/>
				<path fill="#d3d3d3" d="M228.449,35.88c-0.002-0.44-0.357-0.8-0.795-0.798c-0.439-0.002-0.795,0.357-0.795,0.798
					c0,0.437,0.355,0.792,0.795,0.792S228.449,36.316,228.449,35.88z"/>
				<path fill="#d3d3d3" d="M228.449,27.916c-0.002-0.438-0.355-0.797-0.795-0.797s-0.795,0.357-0.795,0.797
					c0,0.437,0.355,0.793,0.795,0.795C228.094,28.711,228.449,28.353,228.449,27.916z"/>
				<path fill="#d3d3d3" d="M228.449,19.953c-0.002-0.439-0.355-0.797-0.795-0.797s-0.797,0.357-0.795,0.797
					c0,0.437,0.355,0.793,0.795,0.793S228.449,20.39,228.449,19.953z"/>
				<circle fill="#d3d3d3" cx="227.654" cy="11.99" r="0.795"/>
				<path fill="#d3d3d3" d="M228.449,4.026c-0.002-0.438-0.355-0.796-0.795-0.796s-0.795,0.357-0.795,0.796
					c-0.002,0.437,0.355,0.794,0.795,0.793C228.094,4.82,228.447,4.464,228.449,4.026z"/>
				<circle fill="#d3d3d3" cx="235.617" cy="59.769" r="0.795"/>
				<path fill="#d3d3d3" d="M236.412,51.807c0-0.44-0.355-0.798-0.795-0.797c-0.439,0-0.795,0.356-0.795,0.797
					c0,0.436,0.355,0.793,0.795,0.791C236.057,52.598,236.412,52.242,236.412,51.807z"/>
				<circle fill="#d3d3d3" cx="235.617" cy="43.842" r="0.795"/>
				<path fill="#d3d3d3" d="M236.412,35.879c0-0.439-0.355-0.799-0.795-0.798s-0.795,0.358-0.795,0.798
					c0,0.438,0.355,0.793,0.795,0.793S236.412,36.316,236.412,35.879z"/>
				<circle fill="#d3d3d3" cx="235.617" cy="27.916" r="0.795"/>
				<circle fill="#d3d3d3" cx="235.617" cy="19.953" r="0.795"/>
				<circle fill="#d3d3d3" cx="235.617" cy="11.99" r="0.795"/>
				<path fill="#d3d3d3" d="M236.412,4.027c0-0.439-0.355-0.797-0.795-0.798c-0.439,0.001-0.795,0.357-0.795,0.798
					c0,0.437,0.355,0.792,0.795,0.792C236.057,4.82,236.412,4.464,236.412,4.027z"/>
				<path fill="#d3d3d3" d="M244.375,59.769c0-0.44-0.355-0.796-0.793-0.797c-0.441,0-0.797,0.357-0.795,0.797
					c-0.002,0.438,0.354,0.793,0.795,0.793C244.02,60.561,244.375,60.207,244.375,59.769z"/>
				<path fill="#d3d3d3" d="M244.375,51.807c0-0.44-0.355-0.799-0.795-0.797c-0.439,0-0.793,0.356-0.795,0.797
					c0,0.436,0.357,0.792,0.795,0.791C244.02,52.598,244.375,52.242,244.375,51.807z"/>
				<circle fill="#d3d3d3" cx="243.58" cy="43.842" r="0.795"/>
				<circle fill="#d3d3d3" cx="243.581" cy="35.879" r="0.794"/>
				<circle fill="#d3d3d3" cx="243.58" cy="27.916" r="0.795"/>
				<path fill="#d3d3d3" d="M244.375,19.953c0-0.439-0.355-0.797-0.795-0.797c-0.438,0-0.795,0.357-0.795,0.797
					c0,0.437,0.355,0.793,0.795,0.793S244.375,20.391,244.375,19.953z"/>
				<circle fill="#d3d3d3" cx="243.58" cy="11.99" r="0.795"/>
				<path fill="#d3d3d3" d="M244.375,4.027c0-0.439-0.355-0.797-0.795-0.797s-0.795,0.357-0.793,0.797
					c-0.002,0.436,0.355,0.792,0.793,0.793C244.02,4.82,244.375,4.464,244.375,4.027z"/>
				<circle fill="#d3d3d3" cx="251.544" cy="59.768" r="0.794"/>
				<path fill="#d3d3d3" d="M252.34,51.807c-0.002-0.441-0.357-0.797-0.797-0.797c-0.439-0.002-0.793,0.356-0.793,0.797
					c0,0.436,0.354,0.791,0.795,0.792C251.982,52.599,252.338,52.242,252.34,51.807z"/>
				<path fill="#d3d3d3" d="M252.338,43.842c0-0.438-0.355-0.796-0.795-0.797c-0.439,0-0.793,0.359-0.793,0.797
					c0,0.439,0.354,0.795,0.795,0.795C251.98,44.637,252.338,44.28,252.338,43.842z"/>
				<path fill="#d3d3d3" d="M252.338,35.88c0-0.44-0.355-0.799-0.793-0.799c-0.439,0-0.795,0.358-0.795,0.798
					c0,0.438,0.354,0.793,0.793,0.793S252.338,36.316,252.338,35.88z"/>
				<circle fill="#d3d3d3" cx="251.544" cy="27.916" r="0.794"/>
				<circle fill="#d3d3d3" cx="251.544" cy="19.953" r="0.794"/>
				<circle fill="#d3d3d3" cx="251.544" cy="11.99" r="0.794"/>
				<path fill="#d3d3d3" d="M252.338,4.026c0-0.438-0.355-0.797-0.793-0.797c-0.441,0.001-0.795,0.357-0.795,0.798
					c0,0.437,0.355,0.792,0.795,0.792C251.982,4.819,252.338,4.465,252.338,4.026z"/>
			</g>
		</g>
		<circle fill="#d3d3d3" cx="131.745" cy="122.306" r="0.794"/>
		<path fill="#d3d3d3" d="M132.54,114.345c0-0.441-0.355-0.799-0.794-0.797c-0.44-0.002-0.796,0.355-0.796,0.797
			c0,0.436,0.355,0.791,0.796,0.791C132.185,115.136,132.54,114.78,132.54,114.345z"/>
		<circle fill="#d3d3d3" cx="131.745" cy="106.38" r="0.794"/>
		<circle fill="#d3d3d3" cx="131.745" cy="98.417" r="0.795"/>
		<circle fill="#d3d3d3" cx="131.745" cy="90.454" r="0.795"/>
		<path fill="#d3d3d3" d="M132.54,82.491c0-0.439-0.355-0.797-0.794-0.797c-0.438,0-0.795,0.357-0.795,0.797
			c0,0.436,0.356,0.793,0.795,0.793C132.184,83.284,132.54,82.927,132.54,82.491z"/>
		<circle fill="#d3d3d3" cx="131.745" cy="74.528" r="0.795"/>
		<path fill="#d3d3d3" d="M132.54,66.565c0-0.439-0.356-0.797-0.793-0.797c-0.44,0-0.796,0.357-0.796,0.797
			c0.001,0.436,0.357,0.791,0.796,0.793C132.185,67.358,132.54,67.003,132.54,66.565z"/>
		<circle fill="#d3d3d3" cx="131.745" cy="59.437" r="0.794"/>
		<path fill="#d3d3d3" d="M132.54,51.475c0-0.441-0.355-0.799-0.794-0.797c-0.44-0.001-0.796,0.355-0.796,0.797
			c0,0.436,0.355,0.791,0.796,0.791C132.185,52.266,132.54,51.911,132.54,51.475z"/>
		<circle fill="#d3d3d3" cx="131.745" cy="43.511" r="0.794"/>
		<circle fill="#d3d3d3" cx="131.745" cy="35.547" r="0.795"/>
		<circle fill="#d3d3d3" cx="131.745" cy="27.584" r="0.795"/>
		<path fill="#d3d3d3" d="M132.54,19.622c0-0.439-0.355-0.797-0.794-0.797c-0.438,0-0.795,0.357-0.795,0.797
			c0,0.437,0.356,0.793,0.795,0.793C132.184,20.415,132.54,20.057,132.54,19.622z"/>
		<circle fill="#d3d3d3" cx="131.745" cy="11.659" r="0.795"/>
		<path fill="#d3d3d3" d="M132.54,3.696c0-0.439-0.356-0.797-0.793-0.797c-0.44,0-0.796,0.357-0.796,0.797
			c0.001,0.436,0.357,0.792,0.796,0.793C132.185,4.489,132.54,4.133,132.54,3.696z"/>
	</g>
	<g>
		<g>
			<g>
				<circle fill="#d3d3d3" cx="11.734" cy="122.638" r="0.794"/>
				<path fill="#d3d3d3" d="M12.529,114.676c0-0.441-0.355-0.799-0.794-0.797c-0.44-0.001-0.796,0.355-0.796,0.797
					c0,0.436,0.355,0.791,0.796,0.791C12.173,115.467,12.529,115.111,12.529,114.676z"/>
				<circle fill="#d3d3d3" cx="11.734" cy="106.711" r="0.794"/>
				<circle fill="#d3d3d3" cx="11.734" cy="98.748" r="0.795"/>
				<circle fill="#d3d3d3" cx="11.734" cy="90.785" r="0.795"/>
				<path fill="#d3d3d3" d="M12.528,82.822c0-0.439-0.355-0.797-0.794-0.797c-0.438,0-0.795,0.357-0.795,0.797
					c0,0.437,0.356,0.793,0.795,0.793C12.172,83.615,12.529,83.258,12.528,82.822z"/>
				<circle fill="#d3d3d3" cx="11.734" cy="74.859" r="0.795"/>
				<path fill="#d3d3d3" d="M12.529,66.896c0-0.439-0.356-0.797-0.793-0.797c-0.44,0-0.796,0.357-0.796,0.797
					c0.001,0.436,0.357,0.792,0.796,0.793C12.173,67.689,12.529,67.334,12.529,66.896z"/>
				<circle fill="#d3d3d3" cx="19.697" cy="122.637" r="0.795"/>
				<path fill="#d3d3d3" d="M20.493,114.676c0-0.441-0.356-0.799-0.795-0.797c-0.44-0.001-0.795,0.355-0.794,0.797
					c-0.001,0.436,0.355,0.791,0.794,0.793C20.136,115.467,20.492,115.111,20.493,114.676z"/>
				<circle fill="#d3d3d3" cx="19.697" cy="106.712" r="0.795"/>
				<path fill="#d3d3d3" d="M20.492,98.748c0-0.439-0.356-0.798-0.794-0.797c-0.439-0.001-0.795,0.357-0.795,0.798
					c0,0.437,0.356,0.792,0.795,0.792S20.492,99.186,20.492,98.748z"/>
				<path fill="#d3d3d3" d="M20.492,90.785c0.001-0.438-0.356-0.797-0.794-0.797c-0.439,0-0.795,0.359-0.795,0.797
					c0,0.437,0.356,0.795,0.795,0.795C20.135,91.58,20.492,91.222,20.492,90.785z"/>
				<path fill="#d3d3d3" d="M20.492,82.822c0-0.439-0.356-0.797-0.794-0.797c-0.439,0-0.795,0.357-0.796,0.797
					c0,0.437,0.356,0.793,0.795,0.793C20.136,83.615,20.492,83.259,20.492,82.822z"/>
				<circle fill="#d3d3d3" cx="19.697" cy="74.859" r="0.795"/>
				<path fill="#d3d3d3" d="M20.492,66.896c0-0.438-0.355-0.796-0.794-0.796c-0.44,0-0.795,0.357-0.795,0.796
					c0,0.437,0.356,0.793,0.796,0.793C20.136,67.688,20.491,67.333,20.492,66.896z"/>
				<circle fill="#d3d3d3" cx="27.66" cy="122.637" r="0.795"/>
				<path fill="#d3d3d3" d="M28.455,114.676c0-0.441-0.355-0.798-0.793-0.798c-0.44-0.001-0.795,0.356-0.795,0.798
					c0,0.436,0.355,0.791,0.795,0.792C28.1,115.467,28.455,115.111,28.455,114.676z"/>
				<circle fill="#d3d3d3" cx="27.66" cy="106.711" r="0.795"/>
				<path fill="#d3d3d3" d="M28.455,98.749c0-0.44-0.356-0.798-0.794-0.799c-0.44-0.001-0.795,0.358-0.795,0.798
					c0,0.438,0.355,0.793,0.795,0.793C28.1,99.541,28.456,99.186,28.455,98.749z"/>
				<circle fill="#d3d3d3" cx="27.66" cy="90.785" r="0.795"/>
				<path fill="#d3d3d3" d="M28.455,82.822c0-0.439-0.356-0.797-0.794-0.797c-0.44,0-0.795,0.357-0.796,0.797
					c0,0.436,0.357,0.793,0.796,0.793C28.099,83.615,28.455,83.259,28.455,82.822z"/>
				<circle fill="#d3d3d3" cx="27.661" cy="74.859" r="0.795"/>
				<path fill="#d3d3d3" d="M28.455,66.896c0-0.438-0.355-0.796-0.794-0.797c-0.439,0.001-0.795,0.358-0.795,0.798
					c0,0.438,0.355,0.793,0.795,0.792C28.099,67.688,28.455,67.332,28.455,66.896z"/>
				<circle fill="#d3d3d3" cx="35.623" cy="122.638" r="0.795"/>
				<path fill="#d3d3d3" d="M36.418,114.676c0-0.441-0.355-0.799-0.793-0.797c-0.44-0.001-0.796,0.355-0.796,0.797
					c0,0.436,0.356,0.791,0.796,0.792C36.062,115.467,36.418,115.111,36.418,114.676z"/>
				<circle fill="#d3d3d3" cx="35.623" cy="106.711" r="0.795"/>
				<circle fill="#d3d3d3" cx="35.623" cy="98.748" r="0.795"/>
				<path fill="#d3d3d3" d="M36.418,90.785c0-0.438-0.356-0.797-0.794-0.797c-0.44,0-0.795,0.359-0.796,0.797
					c0,0.437,0.356,0.794,0.796,0.795C36.062,91.58,36.418,91.223,36.418,90.785z"/>
				<path fill="#d3d3d3" d="M36.418,82.822c-0.001-0.439-0.356-0.797-0.794-0.797c-0.439,0.001-0.796,0.357-0.795,0.797
					c0,0.437,0.356,0.793,0.795,0.793C36.062,83.615,36.417,83.26,36.418,82.822z"/>
				<circle fill="#d3d3d3" cx="35.624" cy="74.859" r="0.795"/>
				<path fill="#d3d3d3" d="M36.418,66.896c0-0.44-0.356-0.797-0.794-0.797c-0.44,0-0.796,0.357-0.796,0.797
					c0,0.437,0.356,0.793,0.795,0.792C36.062,67.688,36.418,67.333,36.418,66.896z"/>
				<circle fill="#d3d3d3" cx="43.586" cy="122.638" r="0.795"/>
				<path fill="#d3d3d3" d="M44.381,114.676c0-0.44-0.355-0.798-0.793-0.797c-0.439-0.002-0.796,0.356-0.796,0.797
					c0,0.436,0.356,0.791,0.795,0.791C44.025,115.468,44.382,115.111,44.381,114.676z"/>
				<circle fill="#d3d3d3" cx="43.586" cy="106.711" r="0.795"/>
				<circle fill="#d3d3d3" cx="43.586" cy="98.748" r="0.795"/>
				<circle fill="#d3d3d3" cx="43.587" cy="90.785" r="0.795"/>
				<circle fill="#d3d3d3" cx="43.587" cy="82.822" r="0.795"/>
				<circle fill="#d3d3d3" cx="43.587" cy="74.859" r="0.795"/>
				<path fill="#d3d3d3" d="M44.382,66.896c-0.001-0.439-0.356-0.797-0.795-0.796c-0.439,0-0.795,0.355-0.795,0.796
					c0,0.437,0.356,0.794,0.795,0.794C44.025,67.688,44.381,67.333,44.382,66.896z"/>
				<path fill="#d3d3d3" d="M52.344,122.639c0.001-0.441-0.356-0.798-0.794-0.798s-0.794,0.356-0.795,0.797
					c0,0.438,0.356,0.792,0.795,0.792C51.988,123.43,52.344,123.076,52.344,122.639z"/>
				<path fill="#d3d3d3" d="M52.344,114.676c0-0.441-0.356-0.799-0.794-0.799c-0.439,0-0.795,0.357-0.795,0.799
					c0,0.436,0.356,0.791,0.795,0.791C51.988,115.467,52.344,115.111,52.344,114.676z"/>
				<circle fill="#d3d3d3" cx="51.549" cy="106.711" r="0.795"/>
				<path fill="#d3d3d3" d="M52.344,98.748c0-0.439-0.356-0.799-0.794-0.799c-0.44,0.001-0.796,0.359-0.795,0.799
					c0,0.437,0.356,0.793,0.795,0.793C51.989,99.541,52.343,99.186,52.344,98.748z"/>
				<circle fill="#d3d3d3" cx="51.549" cy="90.785" r="0.795"/>
				<circle fill="#d3d3d3" cx="51.55" cy="82.822" r="0.795"/>
				<circle fill="#d3d3d3" cx="51.55" cy="74.859" r="0.795"/>
				<path fill="#d3d3d3" d="M52.344,66.896c0-0.441-0.355-0.797-0.794-0.797c-0.438,0-0.795,0.356-0.794,0.797
					c0,0.437,0.355,0.793,0.794,0.792C51.988,67.688,52.344,67.332,52.344,66.896z"/>
				<circle fill="#d3d3d3" cx="59.512" cy="122.638" r="0.795"/>
				<path fill="#d3d3d3" d="M60.307,114.676c0-0.44-0.356-0.798-0.794-0.799c-0.439,0.002-0.796,0.358-0.796,0.799
					c0.001,0.436,0.356,0.791,0.796,0.791C59.951,115.467,60.307,115.111,60.307,114.676z"/>
				<circle fill="#d3d3d3" cx="59.512" cy="106.711" r="0.795"/>
				<path fill="#d3d3d3" d="M60.307,98.748c0-0.439-0.355-0.797-0.794-0.799c-0.439,0.002-0.796,0.359-0.796,0.799
					c0,0.438,0.356,0.793,0.796,0.793C59.952,99.541,60.307,99.186,60.307,98.748z"/>
				<circle fill="#d3d3d3" cx="59.512" cy="90.785" r="0.795"/>
				<circle fill="#d3d3d3" cx="59.512" cy="82.821" r="0.795"/>
				<circle fill="#d3d3d3" cx="59.513" cy="74.859" r="0.794"/>
				<path fill="#d3d3d3" d="M60.307,66.896c0-0.44-0.355-0.797-0.794-0.797c-0.439,0-0.796,0.356-0.796,0.797
					c0,0.437,0.355,0.792,0.796,0.793C59.952,67.688,60.307,67.333,60.307,66.896z"/>
				<path fill="#d3d3d3" d="M68.27,122.638c0-0.44-0.355-0.797-0.793-0.797c-0.439-0.001-0.797,0.356-0.795,0.798
					c0,0.438,0.355,0.791,0.795,0.792C67.914,123.43,68.271,123.076,68.27,122.638z"/>
				<path fill="#d3d3d3" d="M68.27,114.676c0-0.441-0.355-0.799-0.793-0.798c-0.439,0.001-0.797,0.356-0.795,0.798
					c0,0.436,0.355,0.791,0.795,0.791C67.914,115.467,68.27,115.111,68.27,114.676z"/>
				<circle fill="#d3d3d3" cx="67.477" cy="106.711" r="0.795"/>
				<path fill="#d3d3d3" d="M68.27,98.748c0-0.439-0.355-0.798-0.793-0.798c-0.439,0.001-0.795,0.358-0.797,0.798
					c0,0.438,0.357,0.793,0.797,0.793C67.914,99.541,68.27,99.186,68.27,98.748z"/>
				<circle fill="#d3d3d3" cx="67.477" cy="90.785" r="0.795"/>
				<path fill="#d3d3d3" d="M68.27,82.822c0.002-0.439-0.355-0.797-0.793-0.796c-0.439-0.001-0.795,0.356-0.797,0.796
					c0.002,0.438,0.357,0.793,0.797,0.793C67.914,83.614,68.271,83.26,68.27,82.822z"/>
				<path fill="#d3d3d3" d="M68.27,74.859c0-0.44-0.355-0.797-0.793-0.797c-0.439,0-0.795,0.357-0.797,0.797
					c0.002,0.438,0.357,0.793,0.797,0.793C67.914,75.651,68.271,75.297,68.27,74.859z"/>
				<path fill="#d3d3d3" d="M68.27,66.896c0-0.439-0.355-0.798-0.793-0.797c-0.439,0-0.795,0.355-0.797,0.797
					c0.002,0.436,0.357,0.792,0.797,0.793C67.914,67.688,68.27,67.333,68.27,66.896z"/>
				<circle fill="#d3d3d3" cx="75.439" cy="122.638" r="0.795"/>
				<path fill="#d3d3d3" d="M76.232,114.676c0-0.441-0.355-0.799-0.793-0.799c-0.441,0-0.797,0.357-0.795,0.799
					c-0.002,0.436,0.355,0.792,0.795,0.791C75.877,115.467,76.232,115.111,76.232,114.676z"/>
				<circle fill="#d3d3d3" cx="75.438" cy="106.711" r="0.795"/>
				<path fill="#d3d3d3" d="M76.234,98.748c-0.002-0.439-0.357-0.797-0.797-0.797c-0.438-0.001-0.793,0.357-0.793,0.797
					c-0.002,0.438,0.355,0.793,0.793,0.793C75.877,99.541,76.232,99.186,76.234,98.748z"/>
				<circle fill="#d3d3d3" cx="75.438" cy="90.785" r="0.795"/>
				<circle fill="#d3d3d3" cx="75.438" cy="82.822" r="0.795"/>
				<circle fill="#d3d3d3" cx="75.438" cy="74.859" r="0.795"/>
				<path fill="#d3d3d3" d="M76.232,66.896c0-0.438-0.355-0.796-0.793-0.796c-0.439-0.001-0.795,0.356-0.797,0.796
					c0.002,0.438,0.357,0.793,0.797,0.794C75.877,67.689,76.232,67.332,76.232,66.896z"/>
				<circle fill="#d3d3d3" cx="83.402" cy="122.638" r="0.795"/>
				<path fill="#d3d3d3" d="M84.195,114.676c0-0.441-0.355-0.798-0.793-0.799c-0.439,0.002-0.795,0.358-0.795,0.799
					c0,0.436,0.355,0.792,0.795,0.791C83.84,115.467,84.195,115.111,84.195,114.676z"/>
				<circle fill="#d3d3d3" cx="83.402" cy="106.711" r="0.795"/>
				<path fill="#d3d3d3" d="M84.195,98.748c0-0.439-0.355-0.798-0.793-0.798c-0.439,0.001-0.795,0.358-0.795,0.799
					c0,0.437,0.355,0.792,0.795,0.792C83.84,99.541,84.195,99.186,84.195,98.748z"/>
				<circle fill="#d3d3d3" cx="83.401" cy="90.785" r="0.794"/>
				<circle fill="#d3d3d3" cx="83.401" cy="82.822" r="0.794"/>
				<circle fill="#d3d3d3" cx="83.401" cy="74.859" r="0.794"/>
				<circle fill="#d3d3d3" cx="83.401" cy="66.896" r="0.794"/>
				<path fill="#d3d3d3" d="M92.158,122.637c0-0.439-0.355-0.796-0.793-0.797c-0.439,0.001-0.797,0.357-0.797,0.797
					c0.002,0.439,0.357,0.793,0.797,0.793C91.803,123.43,92.16,123.076,92.158,122.637z"/>
				<path fill="#d3d3d3" d="M92.158,114.676c0-0.441-0.355-0.799-0.793-0.797c-0.439-0.002-0.795,0.355-0.795,0.797
					c0,0.436,0.355,0.791,0.795,0.793C91.803,115.467,92.158,115.111,92.158,114.676z"/>
				<circle fill="#d3d3d3" cx="91.365" cy="106.712" r="0.795"/>
				<path fill="#d3d3d3" d="M92.158,98.748c0-0.439-0.355-0.799-0.793-0.797c-0.439,0-0.797,0.357-0.795,0.798
					c-0.002,0.437,0.355,0.792,0.795,0.792C91.803,99.541,92.158,99.186,92.158,98.748z"/>
				<path fill="#d3d3d3" d="M92.158,90.785c0-0.439-0.355-0.797-0.793-0.797c-0.439,0-0.795,0.359-0.797,0.797
					c0.002,0.437,0.357,0.795,0.797,0.795C91.803,91.578,92.158,91.223,92.158,90.785z"/>
				<path fill="#d3d3d3" d="M92.16,82.822c-0.002-0.439-0.357-0.797-0.795-0.797c-0.439,0-0.795,0.357-0.795,0.797
					c0,0.437,0.355,0.793,0.795,0.793C91.803,83.615,92.158,83.258,92.16,82.822z"/>
				<path fill="#d3d3d3" d="M92.158,74.859c0-0.439-0.355-0.797-0.793-0.797c-0.439,0-0.795,0.357-0.797,0.797
					c0.002,0.438,0.357,0.793,0.797,0.793C91.803,75.652,92.16,75.297,92.158,74.859z"/>
				<circle fill="#d3d3d3" cx="91.364" cy="66.896" r="0.794"/>
				<circle fill="#d3d3d3" cx="99.328" cy="122.637" r="0.795"/>
				<path fill="#d3d3d3" d="M100.121,114.676c0.002-0.441-0.354-0.797-0.793-0.797c-0.439-0.002-0.795,0.355-0.797,0.797
					c0.002,0.436,0.357,0.791,0.797,0.792S100.123,115.111,100.121,114.676z"/>
				<circle fill="#d3d3d3" cx="99.328" cy="106.712" r="0.795"/>
				<path fill="#d3d3d3" d="M100.123,98.749c-0.002-0.44-0.357-0.8-0.795-0.798c-0.439-0.002-0.795,0.357-0.795,0.798
					c0,0.437,0.355,0.792,0.795,0.792S100.123,99.186,100.123,98.749z"/>
				<path fill="#d3d3d3" d="M100.123,90.785c-0.002-0.438-0.355-0.797-0.795-0.797s-0.795,0.357-0.795,0.797
					c0,0.437,0.355,0.793,0.795,0.795C99.768,91.58,100.123,91.222,100.123,90.785z"/>
				<path fill="#d3d3d3" d="M100.123,82.822c-0.002-0.439-0.355-0.797-0.795-0.797s-0.797,0.357-0.795,0.797
					c0,0.437,0.355,0.793,0.795,0.793S100.123,83.259,100.123,82.822z"/>
				<circle fill="#d3d3d3" cx="99.328" cy="74.859" r="0.795"/>
				<path fill="#d3d3d3" d="M100.123,66.896c-0.002-0.438-0.355-0.796-0.795-0.796s-0.795,0.357-0.795,0.796
					c-0.002,0.437,0.355,0.794,0.795,0.793C99.768,67.689,100.121,67.333,100.123,66.896z"/>
				<circle fill="#d3d3d3" cx="107.291" cy="122.638" r="0.795"/>
				<path fill="#d3d3d3" d="M108.086,114.676c0-0.44-0.355-0.798-0.795-0.797c-0.439,0-0.795,0.356-0.795,0.797
					c0,0.436,0.355,0.793,0.795,0.791C107.73,115.467,108.086,115.111,108.086,114.676z"/>
				<circle fill="#d3d3d3" cx="107.291" cy="106.711" r="0.795"/>
				<path fill="#d3d3d3" d="M108.086,98.748c0-0.439-0.355-0.799-0.795-0.798s-0.795,0.358-0.795,0.798
					c0,0.438,0.355,0.793,0.795,0.793S108.086,99.186,108.086,98.748z"/>
				<circle fill="#d3d3d3" cx="107.291" cy="90.785" r="0.795"/>
				<circle fill="#d3d3d3" cx="107.291" cy="82.822" r="0.795"/>
				<circle fill="#d3d3d3" cx="107.291" cy="74.859" r="0.795"/>
				<path fill="#d3d3d3" d="M108.086,66.896c0-0.439-0.355-0.797-0.795-0.798c-0.439,0.001-0.795,0.357-0.795,0.798
					c0,0.437,0.355,0.792,0.795,0.792C107.73,67.689,108.086,67.333,108.086,66.896z"/>
				<path fill="#d3d3d3" d="M116.049,122.638c0-0.44-0.355-0.796-0.793-0.797c-0.441,0-0.797,0.357-0.795,0.797
					c-0.002,0.438,0.354,0.793,0.795,0.793C115.693,123.43,116.049,123.076,116.049,122.638z"/>
				<path fill="#d3d3d3" d="M116.049,114.676c0-0.44-0.355-0.799-0.795-0.797c-0.439,0-0.793,0.356-0.795,0.797
					c0,0.436,0.357,0.792,0.795,0.791C115.693,115.467,116.049,115.111,116.049,114.676z"/>
				<circle fill="#d3d3d3" cx="115.254" cy="106.711" r="0.795"/>
				<circle fill="#d3d3d3" cx="115.255" cy="98.748" r="0.794"/>
				<circle fill="#d3d3d3" cx="115.254" cy="90.785" r="0.795"/>
				<path fill="#d3d3d3" d="M116.049,82.822c0-0.439-0.355-0.797-0.795-0.797c-0.438,0-0.795,0.357-0.795,0.797
					c0,0.437,0.355,0.793,0.795,0.793S116.049,83.26,116.049,82.822z"/>
				<circle fill="#d3d3d3" cx="115.254" cy="74.859" r="0.795"/>
				<path fill="#d3d3d3" d="M116.049,66.896c0-0.439-0.355-0.797-0.795-0.797s-0.795,0.357-0.793,0.797
					c-0.002,0.436,0.355,0.792,0.793,0.793C115.693,67.689,116.049,67.333,116.049,66.896z"/>
				<circle fill="#d3d3d3" cx="123.218" cy="122.637" r="0.794"/>
				<path fill="#d3d3d3" d="M124.014,114.676c-0.002-0.441-0.357-0.797-0.797-0.797c-0.439-0.002-0.793,0.356-0.793,0.797
					c0,0.436,0.354,0.791,0.795,0.792C123.656,115.468,124.012,115.111,124.014,114.676z"/>
				<path fill="#d3d3d3" d="M124.012,106.711c0-0.438-0.355-0.796-0.795-0.797c-0.439,0-0.793,0.359-0.793,0.797
					c0,0.439,0.354,0.795,0.795,0.795C123.654,107.506,124.012,107.149,124.012,106.711z"/>
				<path fill="#d3d3d3" d="M124.012,98.749c0-0.44-0.355-0.799-0.793-0.799c-0.439,0-0.795,0.358-0.795,0.798
					c0,0.438,0.354,0.793,0.793,0.793S124.012,99.186,124.012,98.749z"/>
				<circle fill="#d3d3d3" cx="123.218" cy="90.785" r="0.794"/>
				<circle fill="#d3d3d3" cx="123.218" cy="82.822" r="0.794"/>
				<circle fill="#d3d3d3" cx="123.218" cy="74.859" r="0.794"/>
				<path fill="#d3d3d3" d="M124.012,66.896c0-0.438-0.355-0.797-0.793-0.797c-0.441,0.001-0.795,0.357-0.795,0.798
					c0,0.437,0.355,0.792,0.795,0.792C123.656,67.688,124.012,67.334,124.012,66.896z"/>
			</g>
			<g>
				<circle fill="#d3d3d3" cx="11.734" cy="59.769" r="0.794"/>
				<path fill="#d3d3d3" d="M12.529,51.807c0-0.441-0.355-0.799-0.794-0.797c-0.44-0.001-0.796,0.355-0.796,0.797
					c0,0.436,0.355,0.791,0.796,0.791C12.173,52.598,12.529,52.242,12.529,51.807z"/>
				<circle fill="#d3d3d3" cx="11.734" cy="43.842" r="0.794"/>
				<circle fill="#d3d3d3" cx="11.734" cy="35.879" r="0.795"/>
				<circle fill="#d3d3d3" cx="11.734" cy="27.916" r="0.795"/>
				<path fill="#d3d3d3" d="M12.528,19.953c0-0.439-0.355-0.797-0.794-0.797c-0.438,0-0.795,0.357-0.795,0.797
					c0,0.437,0.356,0.793,0.795,0.793C12.172,20.746,12.529,20.389,12.528,19.953z"/>
				<circle fill="#d3d3d3" cx="11.734" cy="11.99" r="0.795"/>
				<path fill="#d3d3d3" d="M12.529,4.027c0-0.439-0.356-0.797-0.793-0.797c-0.44,0-0.796,0.357-0.796,0.797
					c0.001,0.436,0.357,0.792,0.796,0.793C12.173,4.82,12.529,4.465,12.529,4.027z"/>
				<circle fill="#d3d3d3" cx="19.697" cy="59.768" r="0.795"/>
				<path fill="#d3d3d3" d="M20.493,51.807c0-0.441-0.356-0.799-0.795-0.797c-0.44-0.001-0.795,0.355-0.794,0.797
					c-0.001,0.436,0.355,0.791,0.794,0.793C20.136,52.598,20.492,52.242,20.493,51.807z"/>
				<circle fill="#d3d3d3" cx="19.697" cy="43.843" r="0.795"/>
				<path fill="#d3d3d3" d="M20.492,35.879c0-0.439-0.356-0.798-0.794-0.797c-0.439-0.001-0.795,0.357-0.795,0.798
					c0,0.437,0.356,0.792,0.795,0.792S20.492,36.316,20.492,35.879z"/>
				<path fill="#d3d3d3" d="M20.492,27.916c0.001-0.438-0.356-0.797-0.794-0.797c-0.439,0-0.795,0.359-0.795,0.797
					c0,0.437,0.356,0.795,0.795,0.795C20.135,28.711,20.492,28.353,20.492,27.916z"/>
				<path fill="#d3d3d3" d="M20.492,19.953c0-0.439-0.356-0.797-0.794-0.797c-0.439,0-0.795,0.357-0.796,0.797
					c0,0.437,0.356,0.793,0.795,0.793C20.136,20.746,20.492,20.39,20.492,19.953z"/>
				<circle fill="#d3d3d3" cx="19.697" cy="11.99" r="0.795"/>
				<path fill="#d3d3d3" d="M20.492,4.026c0-0.438-0.355-0.796-0.794-0.796c-0.44,0-0.795,0.357-0.795,0.796
					c0,0.437,0.356,0.793,0.796,0.793C20.136,4.819,20.491,4.464,20.492,4.026z"/>
				<circle fill="#d3d3d3" cx="27.66" cy="59.768" r="0.795"/>
				<path fill="#d3d3d3" d="M28.455,51.807c0-0.441-0.355-0.798-0.793-0.798c-0.44-0.001-0.795,0.356-0.795,0.798
					c0,0.436,0.355,0.791,0.795,0.792C28.1,52.598,28.455,52.242,28.455,51.807z"/>
				<circle fill="#d3d3d3" cx="27.66" cy="43.842" r="0.795"/>
				<path fill="#d3d3d3" d="M28.455,35.88c0-0.44-0.356-0.798-0.794-0.799c-0.44-0.001-0.795,0.358-0.795,0.798
					c0,0.438,0.355,0.793,0.795,0.793C28.1,36.672,28.456,36.316,28.455,35.88z"/>
				<circle fill="#d3d3d3" cx="27.66" cy="27.916" r="0.795"/>
				<path fill="#d3d3d3" d="M28.455,19.953c0-0.439-0.356-0.797-0.794-0.797c-0.44,0-0.795,0.357-0.796,0.797
					c0,0.436,0.357,0.793,0.796,0.793C28.099,20.746,28.455,20.39,28.455,19.953z"/>
				<circle fill="#d3d3d3" cx="27.661" cy="11.99" r="0.795"/>
				<path fill="#d3d3d3" d="M28.455,4.026c0-0.438-0.355-0.796-0.794-0.797c-0.439,0.001-0.795,0.358-0.795,0.798
					c0,0.438,0.355,0.793,0.795,0.792C28.099,4.819,28.455,4.463,28.455,4.026z"/>
				<circle fill="#d3d3d3" cx="35.623" cy="59.769" r="0.795"/>
				<path fill="#d3d3d3" d="M36.418,51.807c0-0.441-0.355-0.799-0.793-0.797c-0.44-0.001-0.796,0.355-0.796,0.797
					c0,0.436,0.356,0.791,0.796,0.792C36.062,52.598,36.418,52.242,36.418,51.807z"/>
				<circle fill="#d3d3d3" cx="35.623" cy="43.842" r="0.795"/>
				<circle fill="#d3d3d3" cx="35.623" cy="35.879" r="0.795"/>
				<path fill="#d3d3d3" d="M36.418,27.916c0-0.438-0.356-0.797-0.794-0.797c-0.44,0-0.795,0.359-0.796,0.797
					c0,0.437,0.356,0.794,0.796,0.795C36.062,28.711,36.418,28.354,36.418,27.916z"/>
				<path fill="#d3d3d3" d="M36.418,19.953c-0.001-0.439-0.356-0.797-0.794-0.797c-0.439,0.001-0.796,0.357-0.795,0.797
					c0,0.437,0.356,0.793,0.795,0.793C36.062,20.746,36.417,20.391,36.418,19.953z"/>
				<circle fill="#d3d3d3" cx="35.624" cy="11.99" r="0.795"/>
				<path fill="#d3d3d3" d="M36.418,4.027c0-0.44-0.356-0.797-0.794-0.797c-0.44,0-0.796,0.357-0.796,0.797
					c0,0.437,0.356,0.793,0.795,0.792C36.062,4.819,36.418,4.464,36.418,4.027z"/>
				<circle fill="#d3d3d3" cx="43.586" cy="59.769" r="0.795"/>
				<path fill="#d3d3d3" d="M44.381,51.807c0-0.44-0.355-0.798-0.793-0.797c-0.439-0.002-0.796,0.356-0.796,0.797
					c0,0.436,0.356,0.791,0.795,0.791C44.025,52.599,44.382,52.242,44.381,51.807z"/>
				<circle fill="#d3d3d3" cx="43.586" cy="43.842" r="0.795"/>
				<circle fill="#d3d3d3" cx="43.586" cy="35.879" r="0.795"/>
				<circle fill="#d3d3d3" cx="43.587" cy="27.916" r="0.795"/>
				<circle fill="#d3d3d3" cx="43.587" cy="19.953" r="0.795"/>
				<circle fill="#d3d3d3" cx="43.587" cy="11.99" r="0.795"/>
				<path fill="#d3d3d3" d="M44.382,4.026c-0.001-0.439-0.356-0.797-0.795-0.796c-0.439,0-0.795,0.355-0.795,0.796
					c0,0.437,0.356,0.794,0.795,0.794C44.025,4.819,44.381,4.464,44.382,4.026z"/>
				<path fill="#d3d3d3" d="M52.344,59.77c0.001-0.441-0.356-0.798-0.794-0.798s-0.794,0.356-0.795,0.797
					c0,0.438,0.356,0.792,0.795,0.792C51.988,60.561,52.344,60.207,52.344,59.77z"/>
				<path fill="#d3d3d3" d="M52.344,51.807c0-0.441-0.356-0.799-0.794-0.799c-0.439,0-0.795,0.357-0.795,0.799
					c0,0.436,0.356,0.791,0.795,0.791C51.988,52.598,52.344,52.242,52.344,51.807z"/>
				<circle fill="#d3d3d3" cx="51.549" cy="43.842" r="0.795"/>
				<path fill="#d3d3d3" d="M52.344,35.879c0-0.439-0.356-0.799-0.794-0.799c-0.44,0.001-0.796,0.359-0.795,0.799
					c0,0.437,0.356,0.793,0.795,0.793C51.989,36.672,52.343,36.316,52.344,35.879z"/>
				<circle fill="#d3d3d3" cx="51.549" cy="27.916" r="0.795"/>
				<circle fill="#d3d3d3" cx="51.55" cy="19.953" r="0.795"/>
				<circle fill="#d3d3d3" cx="51.55" cy="11.99" r="0.795"/>
				<path fill="#d3d3d3" d="M52.344,4.027c0-0.441-0.355-0.797-0.794-0.797c-0.438,0-0.795,0.356-0.794,0.797
					c0,0.437,0.355,0.793,0.794,0.792C51.988,4.819,52.344,4.463,52.344,4.027z"/>
				<circle fill="#d3d3d3" cx="59.512" cy="59.769" r="0.795"/>
				<path fill="#d3d3d3" d="M60.307,51.807c0-0.44-0.356-0.798-0.794-0.799c-0.439,0.002-0.796,0.358-0.796,0.799
					c0.001,0.436,0.356,0.791,0.796,0.791C59.951,52.598,60.307,52.242,60.307,51.807z"/>
				<circle fill="#d3d3d3" cx="59.512" cy="43.842" r="0.795"/>
				<path fill="#d3d3d3" d="M60.307,35.879c0-0.439-0.355-0.797-0.794-0.799c-0.439,0.002-0.796,0.359-0.796,0.799
					c0,0.438,0.356,0.793,0.796,0.793C59.952,36.672,60.307,36.316,60.307,35.879z"/>
				<circle fill="#d3d3d3" cx="59.512" cy="27.916" r="0.795"/>
				<circle fill="#d3d3d3" cx="59.512" cy="19.952" r="0.795"/>
				<circle fill="#d3d3d3" cx="59.513" cy="11.99" r="0.794"/>
				<path fill="#d3d3d3" d="M60.307,4.027c0-0.44-0.355-0.797-0.794-0.797c-0.439,0-0.796,0.356-0.796,0.797
					c0,0.437,0.355,0.792,0.796,0.793C59.952,4.819,60.307,4.464,60.307,4.027z"/>
				<path fill="#d3d3d3" d="M68.27,59.769c0-0.44-0.355-0.797-0.793-0.797c-0.439-0.001-0.797,0.356-0.795,0.798
					c0,0.438,0.355,0.791,0.795,0.792C67.914,60.561,68.271,60.207,68.27,59.769z"/>
				<path fill="#d3d3d3" d="M68.27,51.807c0-0.441-0.355-0.799-0.793-0.798c-0.439,0.001-0.797,0.356-0.795,0.798
					c0,0.436,0.355,0.791,0.795,0.791C67.914,52.598,68.27,52.242,68.27,51.807z"/>
				<circle fill="#d3d3d3" cx="67.477" cy="43.842" r="0.795"/>
				<path fill="#d3d3d3" d="M68.27,35.879c0-0.439-0.355-0.798-0.793-0.798c-0.439,0.001-0.795,0.358-0.797,0.798
					c0,0.438,0.357,0.793,0.797,0.793C67.914,36.672,68.27,36.316,68.27,35.879z"/>
				<circle fill="#d3d3d3" cx="67.477" cy="27.916" r="0.795"/>
				<path fill="#d3d3d3" d="M68.27,19.953c0.002-0.439-0.355-0.797-0.793-0.796c-0.439-0.001-0.795,0.356-0.797,0.796
					c0.002,0.438,0.357,0.793,0.797,0.793C67.914,20.745,68.271,20.391,68.27,19.953z"/>
				<path fill="#d3d3d3" d="M68.27,11.99c0-0.44-0.355-0.797-0.793-0.797c-0.439,0-0.795,0.357-0.797,0.797
					c0.002,0.438,0.357,0.793,0.797,0.793C67.914,12.782,68.271,12.428,68.27,11.99z"/>
				<path fill="#d3d3d3" d="M68.27,4.027c0-0.439-0.355-0.798-0.793-0.797c-0.439,0-0.795,0.355-0.797,0.797
					c0.002,0.436,0.357,0.792,0.797,0.793C67.914,4.819,68.27,4.464,68.27,4.027z"/>
				<circle fill="#d3d3d3" cx="75.439" cy="59.769" r="0.795"/>
				<path fill="#d3d3d3" d="M76.232,51.807c0-0.441-0.355-0.799-0.793-0.799c-0.441,0-0.797,0.357-0.795,0.799
					c-0.002,0.436,0.355,0.792,0.795,0.791C75.877,52.598,76.232,52.242,76.232,51.807z"/>
				<circle fill="#d3d3d3" cx="75.438" cy="43.842" r="0.795"/>
				<path fill="#d3d3d3" d="M76.234,35.879c-0.002-0.439-0.357-0.797-0.797-0.797c-0.438-0.001-0.793,0.357-0.793,0.797
					c-0.002,0.438,0.355,0.793,0.793,0.793C75.877,36.672,76.232,36.316,76.234,35.879z"/>
				<circle fill="#d3d3d3" cx="75.438" cy="27.916" r="0.795"/>
				<circle fill="#d3d3d3" cx="75.438" cy="19.953" r="0.795"/>
				<circle fill="#d3d3d3" cx="75.438" cy="11.99" r="0.795"/>
				<path fill="#d3d3d3" d="M76.232,4.026c0-0.438-0.355-0.796-0.793-0.796C75,3.229,74.645,3.587,74.643,4.026
					C74.645,4.464,75,4.819,75.439,4.82C75.877,4.82,76.232,4.463,76.232,4.026z"/>
				<circle fill="#d3d3d3" cx="83.402" cy="59.769" r="0.795"/>
				<path fill="#d3d3d3" d="M84.195,51.807c0-0.441-0.355-0.798-0.793-0.799c-0.439,0.002-0.795,0.358-0.795,0.799
					c0,0.436,0.355,0.792,0.795,0.791C83.84,52.598,84.195,52.242,84.195,51.807z"/>
				<circle fill="#d3d3d3" cx="83.402" cy="43.842" r="0.795"/>
				<path fill="#d3d3d3" d="M84.195,35.879c0-0.439-0.355-0.798-0.793-0.798c-0.439,0.001-0.795,0.358-0.795,0.799
					c0,0.437,0.355,0.792,0.795,0.792C83.84,36.672,84.195,36.316,84.195,35.879z"/>
				<circle fill="#d3d3d3" cx="83.401" cy="27.916" r="0.794"/>
				<circle fill="#d3d3d3" cx="83.401" cy="19.953" r="0.794"/>
				<circle fill="#d3d3d3" cx="83.401" cy="11.99" r="0.794"/>
				<circle fill="#d3d3d3" cx="83.401" cy="4.026" r="0.794"/>
				<path fill="#d3d3d3" d="M92.158,59.768c0-0.439-0.355-0.796-0.793-0.797c-0.439,0.001-0.797,0.357-0.797,0.797
					c0.002,0.439,0.357,0.793,0.797,0.793C91.803,60.561,92.16,60.207,92.158,59.768z"/>
				<path fill="#d3d3d3" d="M92.158,51.807c0-0.441-0.355-0.799-0.793-0.797c-0.439-0.002-0.795,0.355-0.795,0.797
					c0,0.436,0.355,0.791,0.795,0.793C91.803,52.598,92.158,52.242,92.158,51.807z"/>
				<circle fill="#d3d3d3" cx="91.365" cy="43.843" r="0.795"/>
				<path fill="#d3d3d3" d="M92.158,35.879c0-0.439-0.355-0.799-0.793-0.797c-0.439,0-0.797,0.357-0.795,0.798
					c-0.002,0.437,0.355,0.792,0.795,0.792C91.803,36.672,92.158,36.316,92.158,35.879z"/>
				<path fill="#d3d3d3" d="M92.158,27.916c0-0.439-0.355-0.797-0.793-0.797c-0.439,0-0.795,0.359-0.797,0.797
					c0.002,0.437,0.357,0.795,0.797,0.795C91.803,28.709,92.158,28.354,92.158,27.916z"/>
				<path fill="#d3d3d3" d="M92.16,19.953c-0.002-0.439-0.357-0.797-0.795-0.797c-0.439,0-0.795,0.357-0.795,0.797
					c0,0.437,0.355,0.793,0.795,0.793C91.803,20.746,92.158,20.389,92.16,19.953z"/>
				<path fill="#d3d3d3" d="M92.158,11.99c0-0.439-0.355-0.797-0.793-0.797c-0.439,0-0.795,0.357-0.797,0.797
					c0.002,0.438,0.357,0.793,0.797,0.793C91.803,12.783,92.16,12.428,92.158,11.99z"/>
				<circle fill="#d3d3d3" cx="91.364" cy="4.027" r="0.794"/>
				<circle fill="#d3d3d3" cx="99.328" cy="59.768" r="0.795"/>
				<path fill="#d3d3d3" d="M100.121,51.807c0.002-0.441-0.354-0.797-0.793-0.797c-0.439-0.002-0.795,0.355-0.797,0.797
					c0.002,0.436,0.357,0.791,0.797,0.792S100.123,52.242,100.121,51.807z"/>
				<circle fill="#d3d3d3" cx="99.328" cy="43.843" r="0.795"/>
				<path fill="#d3d3d3" d="M100.123,35.88c-0.002-0.44-0.357-0.8-0.795-0.798c-0.439-0.002-0.795,0.357-0.795,0.798
					c0,0.437,0.355,0.792,0.795,0.792S100.123,36.316,100.123,35.88z"/>
				<path fill="#d3d3d3" d="M100.123,27.916c-0.002-0.438-0.355-0.797-0.795-0.797s-0.795,0.357-0.795,0.797
					c0,0.437,0.355,0.793,0.795,0.795C99.768,28.711,100.123,28.353,100.123,27.916z"/>
				<path fill="#d3d3d3" d="M100.123,19.953c-0.002-0.439-0.355-0.797-0.795-0.797s-0.797,0.357-0.795,0.797
					c0,0.437,0.355,0.793,0.795,0.793S100.123,20.39,100.123,19.953z"/>
				<circle fill="#d3d3d3" cx="99.328" cy="11.99" r="0.795"/>
				<path fill="#d3d3d3" d="M100.123,4.026c-0.002-0.438-0.355-0.796-0.795-0.796s-0.795,0.357-0.795,0.796
					c-0.002,0.437,0.355,0.794,0.795,0.793C99.768,4.82,100.121,4.464,100.123,4.026z"/>
				<circle fill="#d3d3d3" cx="107.291" cy="59.769" r="0.795"/>
				<path fill="#d3d3d3" d="M108.086,51.807c0-0.44-0.355-0.798-0.795-0.797c-0.439,0-0.795,0.356-0.795,0.797
					c0,0.436,0.355,0.793,0.795,0.791C107.73,52.598,108.086,52.242,108.086,51.807z"/>
				<circle fill="#d3d3d3" cx="107.291" cy="43.842" r="0.795"/>
				<path fill="#d3d3d3" d="M108.086,35.879c0-0.439-0.355-0.799-0.795-0.798s-0.795,0.358-0.795,0.798
					c0,0.438,0.355,0.793,0.795,0.793S108.086,36.316,108.086,35.879z"/>
				<circle fill="#d3d3d3" cx="107.291" cy="27.916" r="0.795"/>
				<circle fill="#d3d3d3" cx="107.291" cy="19.953" r="0.795"/>
				<circle fill="#d3d3d3" cx="107.291" cy="11.99" r="0.795"/>
				<path fill="#d3d3d3" d="M108.086,4.027c0-0.439-0.355-0.797-0.795-0.798c-0.439,0.001-0.795,0.357-0.795,0.798
					c0,0.437,0.355,0.792,0.795,0.792C107.73,4.82,108.086,4.464,108.086,4.027z"/>
				<path fill="#d3d3d3" d="M116.049,59.769c0-0.44-0.355-0.796-0.793-0.797c-0.441,0-0.797,0.357-0.795,0.797
					c-0.002,0.438,0.354,0.793,0.795,0.793C115.693,60.561,116.049,60.207,116.049,59.769z"/>
				<path fill="#d3d3d3" d="M116.049,51.807c0-0.44-0.355-0.799-0.795-0.797c-0.439,0-0.793,0.356-0.795,0.797
					c0,0.436,0.357,0.792,0.795,0.791C115.693,52.598,116.049,52.242,116.049,51.807z"/>
				<circle fill="#d3d3d3" cx="115.254" cy="43.842" r="0.795"/>
				<circle fill="#d3d3d3" cx="115.255" cy="35.879" r="0.794"/>
				<circle fill="#d3d3d3" cx="115.254" cy="27.916" r="0.795"/>
				<path fill="#d3d3d3" d="M116.049,19.953c0-0.439-0.355-0.797-0.795-0.797c-0.438,0-0.795,0.357-0.795,0.797
					c0,0.437,0.355,0.793,0.795,0.793S116.049,20.391,116.049,19.953z"/>
				<circle fill="#d3d3d3" cx="115.254" cy="11.99" r="0.795"/>
				<path fill="#d3d3d3" d="M116.049,4.027c0-0.439-0.355-0.797-0.795-0.797s-0.795,0.357-0.793,0.797
					c-0.002,0.436,0.355,0.792,0.793,0.793C115.693,4.82,116.049,4.464,116.049,4.027z"/>
				<circle fill="#d3d3d3" cx="123.218" cy="59.768" r="0.794"/>
				<path fill="#d3d3d3" d="M124.014,51.807c-0.002-0.441-0.357-0.797-0.797-0.797c-0.439-0.002-0.793,0.356-0.793,0.797
					c0,0.436,0.354,0.791,0.795,0.792C123.656,52.599,124.012,52.242,124.014,51.807z"/>
				<path fill="#d3d3d3" d="M124.012,43.842c0-0.438-0.355-0.796-0.795-0.797c-0.439,0-0.793,0.359-0.793,0.797
					c0,0.439,0.354,0.795,0.795,0.795C123.654,44.637,124.012,44.28,124.012,43.842z"/>
				<path fill="#d3d3d3" d="M124.012,35.88c0-0.44-0.355-0.799-0.793-0.799c-0.439,0-0.795,0.358-0.795,0.798
					c0,0.438,0.354,0.793,0.793,0.793S124.012,36.316,124.012,35.88z"/>
				<circle fill="#d3d3d3" cx="123.218" cy="27.916" r="0.794"/>
				<circle fill="#d3d3d3" cx="123.218" cy="19.953" r="0.794"/>
				<circle fill="#d3d3d3" cx="123.218" cy="11.99" r="0.794"/>
				<path fill="#d3d3d3" d="M124.012,4.026c0-0.438-0.355-0.797-0.793-0.797c-0.441,0.001-0.795,0.357-0.795,0.798
					c0,0.437,0.355,0.792,0.795,0.792C123.656,4.819,124.012,4.465,124.012,4.026z"/>
			</g>
		</g>
		<circle fill="#d3d3d3" cx="3.419" cy="122.306" r="0.794"/>
		<path fill="#d3d3d3" d="M4.214,114.345c0-0.441-0.355-0.799-0.794-0.797c-0.44-0.002-0.796,0.355-0.796,0.797
			c0,0.436,0.355,0.791,0.796,0.791C3.858,115.136,4.214,114.78,4.214,114.345z"/>
		<circle fill="#d3d3d3" cx="3.419" cy="106.38" r="0.794"/>
		<circle fill="#d3d3d3" cx="3.419" cy="98.417" r="0.795"/>
		<circle fill="#d3d3d3" cx="3.419" cy="90.454" r="0.795"/>
		<path fill="#d3d3d3" d="M4.213,82.491c0-0.439-0.355-0.797-0.794-0.797c-0.438,0-0.795,0.357-0.795,0.797
			c0,0.436,0.356,0.793,0.795,0.793C3.857,83.284,4.214,82.927,4.213,82.491z"/>
		<circle fill="#d3d3d3" cx="3.419" cy="74.528" r="0.795"/>
		<path fill="#d3d3d3" d="M4.214,66.565c0-0.439-0.356-0.797-0.793-0.797c-0.44,0-0.796,0.357-0.796,0.797
			c0.001,0.436,0.357,0.791,0.796,0.793C3.858,67.358,4.214,67.003,4.214,66.565z"/>
		<circle fill="#d3d3d3" cx="3.419" cy="59.437" r="0.794"/>
		<path fill="#d3d3d3" d="M4.214,51.475c0-0.441-0.355-0.799-0.794-0.797c-0.44-0.001-0.796,0.355-0.796,0.797
			c0,0.436,0.355,0.791,0.796,0.791C3.858,52.266,4.214,51.911,4.214,51.475z"/>
		<circle fill="#d3d3d3" cx="3.419" cy="43.511" r="0.794"/>
		<circle fill="#d3d3d3" cx="3.419" cy="35.547" r="0.795"/>
		<circle fill="#d3d3d3" cx="3.419" cy="27.584" r="0.795"/>
		<path fill="#d3d3d3" d="M4.213,19.622c0-0.439-0.355-0.797-0.794-0.797c-0.438,0-0.795,0.357-0.795,0.797
			c0,0.437,0.356,0.793,0.795,0.793C3.857,20.415,4.214,20.057,4.213,19.622z"/>
		<circle fill="#d3d3d3" cx="3.419" cy="11.659" r="0.795"/>
		<path fill="#d3d3d3" d="M4.214,3.696c0-0.439-0.356-0.797-0.793-0.797c-0.44,0-0.796,0.357-0.796,0.797
			C2.625,4.131,2.981,4.488,3.42,4.489C3.858,4.489,4.214,4.133,4.214,3.696z"/>
	</g>
	<g>
		<g>
			<g>
				<circle fill="#d3d3d3" cx="268.386" cy="122.638" r="0.794"/>
				<path fill="#d3d3d3" d="M269.181,114.676c0-0.441-0.355-0.799-0.793-0.797c-0.44-0.001-0.797,0.355-0.797,0.797
					c0,0.436,0.355,0.791,0.797,0.791C268.825,115.467,269.181,115.111,269.181,114.676z"/>
				<circle fill="#d3d3d3" cx="268.387" cy="106.711" r="0.794"/>
				<circle fill="#d3d3d3" cx="268.386" cy="98.748" r="0.795"/>
				<circle fill="#d3d3d3" cx="268.386" cy="90.785" r="0.795"/>
				<path fill="#d3d3d3" d="M269.181,82.822c0-0.439-0.355-0.797-0.794-0.797s-0.796,0.357-0.795,0.797
					c0,0.437,0.356,0.793,0.796,0.793C268.825,83.615,269.181,83.258,269.181,82.822z"/>
				<path fill="#d3d3d3" d="M269.181,74.859c0-0.44-0.355-0.797-0.793-0.797c-0.439,0-0.795,0.357-0.797,0.797
					c0.002,0.438,0.357,0.793,0.797,0.793C268.825,75.652,269.181,75.297,269.181,74.859z"/>
				<path fill="#d3d3d3" d="M269.181,66.896c0-0.439-0.355-0.797-0.793-0.797c-0.439,0-0.797,0.357-0.797,0.797
					c0.002,0.436,0.357,0.792,0.797,0.793C268.825,67.689,269.181,67.334,269.181,66.896z"/>
				<circle fill="#d3d3d3" cx="276.349" cy="122.637" r="0.794"/>
				<path fill="#d3d3d3" d="M277.146,114.676c-0.001-0.441-0.357-0.799-0.795-0.797c-0.44-0.001-0.796,0.355-0.795,0.797
					c-0.001,0.436,0.355,0.791,0.795,0.793C276.788,115.467,277.144,115.111,277.146,114.676z"/>
				<circle fill="#d3d3d3" cx="276.35" cy="106.712" r="0.795"/>
				<path fill="#d3d3d3" d="M277.144,98.748c0-0.439-0.355-0.798-0.793-0.797c-0.439-0.001-0.796,0.357-0.796,0.798
					c0,0.437,0.356,0.792,0.795,0.792S277.144,99.186,277.144,98.748z"/>
				<path fill="#d3d3d3" d="M277.144,90.785c0.002-0.438-0.355-0.797-0.793-0.797c-0.439,0-0.795,0.359-0.796,0.797
					c0,0.437,0.356,0.795,0.796,0.795C276.788,91.58,277.145,91.222,277.144,90.785z"/>
				<path fill="#d3d3d3" d="M277.145,82.822c-0.001-0.439-0.356-0.797-0.794-0.797c-0.439,0-0.795,0.357-0.796,0.797
					c0,0.437,0.356,0.793,0.796,0.793C276.788,83.615,277.145,83.259,277.145,82.822z"/>
				<circle fill="#d3d3d3" cx="276.349" cy="74.859" r="0.794"/>
				<path fill="#d3d3d3" d="M277.145,66.896c-0.001-0.438-0.355-0.796-0.794-0.796c-0.44,0-0.796,0.357-0.796,0.796
					c0,0.437,0.356,0.793,0.796,0.793C276.788,67.688,277.144,67.333,277.145,66.896z"/>
				<circle fill="#d3d3d3" cx="284.313" cy="122.637" r="0.794"/>
				<path fill="#d3d3d3" d="M285.106,114.676c0.001-0.441-0.354-0.798-0.793-0.798c-0.439-0.001-0.795,0.356-0.795,0.798
					c0,0.436,0.355,0.791,0.795,0.792C284.752,115.467,285.107,115.111,285.106,114.676z"/>
				<circle fill="#d3d3d3" cx="284.312" cy="106.711" r="0.794"/>
				<path fill="#d3d3d3" d="M285.107,98.749c0.001-0.44-0.356-0.798-0.794-0.799c-0.439-0.001-0.795,0.358-0.795,0.798
					c0,0.438,0.355,0.793,0.795,0.793C284.752,99.541,285.108,99.186,285.107,98.749z"/>
				<circle fill="#d3d3d3" cx="284.313" cy="90.785" r="0.794"/>
				<path fill="#d3d3d3" d="M285.107,82.822c0-0.439-0.356-0.797-0.794-0.797c-0.439,0-0.795,0.357-0.796,0.797
					c0.001,0.436,0.356,0.793,0.796,0.793C284.751,83.615,285.107,83.259,285.107,82.822z"/>
				<circle fill="#d3d3d3" cx="284.313" cy="74.859" r="0.795"/>
				<path fill="#d3d3d3" d="M285.107,66.896c0.001-0.438-0.355-0.796-0.794-0.797c-0.439,0.001-0.795,0.358-0.795,0.798
					c0,0.438,0.355,0.793,0.795,0.792C284.751,67.688,285.106,67.332,285.107,66.896z"/>
				<circle fill="#d3d3d3" cx="292.275" cy="122.638" r="0.795"/>
				<path fill="#d3d3d3" d="M293.07,114.676c0.001-0.441-0.355-0.799-0.794-0.797c-0.439-0.001-0.795,0.355-0.796,0.797
					c0.001,0.436,0.356,0.791,0.796,0.792C292.714,115.467,293.071,115.111,293.07,114.676z"/>
				<circle fill="#d3d3d3" cx="292.275" cy="106.711" r="0.794"/>
				<circle fill="#d3d3d3" cx="292.276" cy="98.748" r="0.794"/>
				<path fill="#d3d3d3" d="M293.071,90.785c0-0.438-0.357-0.797-0.795-0.797c-0.439,0-0.795,0.359-0.795,0.797
					c0,0.437,0.355,0.794,0.795,0.795C292.714,91.58,293.07,91.223,293.071,90.785z"/>
				<path fill="#d3d3d3" d="M293.071,82.822c-0.002-0.439-0.356-0.797-0.795-0.797c-0.439,0.001-0.796,0.357-0.795,0.797
					c0,0.437,0.355,0.793,0.795,0.793C292.714,83.615,293.069,83.26,293.071,82.822z"/>
				<circle fill="#d3d3d3" cx="292.276" cy="74.859" r="0.795"/>
				<path fill="#d3d3d3" d="M293.071,66.896c-0.001-0.44-0.357-0.797-0.795-0.797c-0.439,0-0.795,0.357-0.795,0.797
					c-0.001,0.437,0.355,0.793,0.795,0.792C292.715,67.688,293.07,67.333,293.071,66.896z"/>
				<circle fill="#d3d3d3" cx="300.238" cy="122.638" r="0.795"/>
				<path fill="#d3d3d3" d="M301.033,114.676c0-0.44-0.355-0.798-0.794-0.797c-0.439-0.002-0.796,0.356-0.795,0.797
					c0,0.436,0.355,0.791,0.795,0.791C300.678,115.468,301.034,115.111,301.033,114.676z"/>
				<circle fill="#d3d3d3" cx="300.239" cy="106.711" r="0.794"/>
				<circle fill="#d3d3d3" cx="300.238" cy="98.748" r="0.795"/>
				<circle fill="#d3d3d3" cx="300.239" cy="90.785" r="0.795"/>
				<circle fill="#d3d3d3" cx="300.239" cy="82.822" r="0.795"/>
				<circle fill="#d3d3d3" cx="300.239" cy="74.859" r="0.795"/>
				<path fill="#d3d3d3" d="M301.034,66.896c-0.001-0.439-0.356-0.797-0.795-0.796c-0.439,0-0.795,0.355-0.795,0.796
					c0,0.437,0.355,0.794,0.795,0.794C300.678,67.688,301.033,67.333,301.034,66.896z"/>
				<circle fill="#d3d3d3" cx="308.202" cy="122.638" r="0.795"/>
				<path fill="#d3d3d3" d="M308.997,114.676c0-0.441-0.357-0.799-0.795-0.799c-0.439,0-0.795,0.357-0.795,0.799
					c0,0.436,0.355,0.791,0.795,0.791C308.64,115.467,308.997,115.111,308.997,114.676z"/>
				<circle fill="#d3d3d3" cx="308.202" cy="106.711" r="0.795"/>
				<path fill="#d3d3d3" d="M308.997,98.748c0-0.439-0.357-0.799-0.795-0.799c-0.439,0.001-0.795,0.359-0.795,0.799
					c0,0.437,0.355,0.793,0.795,0.793S308.995,99.186,308.997,98.748z"/>
				<circle fill="#d3d3d3" cx="308.202" cy="90.785" r="0.795"/>
				<circle fill="#d3d3d3" cx="308.202" cy="82.822" r="0.795"/>
				<circle fill="#d3d3d3" cx="308.202" cy="74.859" r="0.795"/>
				<path fill="#d3d3d3" d="M308.997,66.896c0-0.441-0.355-0.797-0.795-0.797c-0.438,0-0.795,0.356-0.795,0.797
					c0,0.437,0.355,0.793,0.795,0.792C308.641,67.688,308.997,67.332,308.997,66.896z"/>
			</g>
			<g>
				<circle fill="#d3d3d3" cx="268.386" cy="59.769" r="0.794"/>
				<path fill="#d3d3d3" d="M269.181,51.807c0-0.441-0.355-0.799-0.793-0.797c-0.44-0.001-0.797,0.355-0.797,0.797
					c0,0.436,0.355,0.791,0.797,0.791C268.825,52.598,269.181,52.242,269.181,51.807z"/>
				<circle fill="#d3d3d3" cx="268.387" cy="43.842" r="0.794"/>
				<circle fill="#d3d3d3" cx="268.386" cy="35.879" r="0.795"/>
				<circle fill="#d3d3d3" cx="268.386" cy="27.916" r="0.795"/>
				<path fill="#d3d3d3" d="M269.181,19.953c0-0.439-0.355-0.797-0.794-0.797s-0.796,0.357-0.795,0.797
					c0,0.437,0.356,0.793,0.796,0.793C268.825,20.746,269.181,20.389,269.181,19.953z"/>
				<path fill="#d3d3d3" d="M269.181,11.99c0-0.44-0.355-0.797-0.793-0.797c-0.439,0-0.795,0.357-0.797,0.797
					c0.002,0.438,0.357,0.793,0.797,0.793C268.825,12.783,269.181,12.428,269.181,11.99z"/>
				<path fill="#d3d3d3" d="M269.181,4.027c0-0.439-0.355-0.797-0.793-0.797c-0.439,0-0.797,0.357-0.797,0.797
					c0.002,0.436,0.357,0.792,0.797,0.793C268.825,4.82,269.181,4.465,269.181,4.027z"/>
				<circle fill="#d3d3d3" cx="276.349" cy="59.768" r="0.794"/>
				<path fill="#d3d3d3" d="M277.146,51.807c-0.001-0.441-0.357-0.799-0.795-0.797c-0.44-0.001-0.796,0.355-0.795,0.797
					c-0.001,0.436,0.355,0.791,0.795,0.793C276.788,52.598,277.144,52.242,277.146,51.807z"/>
				<circle fill="#d3d3d3" cx="276.35" cy="43.843" r="0.795"/>
				<path fill="#d3d3d3" d="M277.144,35.879c0-0.439-0.355-0.798-0.793-0.797c-0.439-0.001-0.796,0.357-0.796,0.798
					c0,0.437,0.356,0.792,0.795,0.792S277.144,36.316,277.144,35.879z"/>
				<path fill="#d3d3d3" d="M277.144,27.916c0.002-0.438-0.355-0.797-0.793-0.797c-0.439,0-0.795,0.359-0.796,0.797
					c0,0.437,0.356,0.795,0.796,0.795C276.788,28.711,277.145,28.353,277.144,27.916z"/>
				<path fill="#d3d3d3" d="M277.145,19.953c-0.001-0.439-0.356-0.797-0.794-0.797c-0.439,0-0.795,0.357-0.796,0.797
					c0,0.437,0.356,0.793,0.796,0.793C276.788,20.746,277.145,20.39,277.145,19.953z"/>
				<circle fill="#d3d3d3" cx="276.349" cy="11.99" r="0.794"/>
				<path fill="#d3d3d3" d="M277.145,4.026c-0.001-0.438-0.355-0.796-0.794-0.796c-0.44,0-0.796,0.357-0.796,0.796
					c0,0.437,0.356,0.793,0.796,0.793C276.788,4.819,277.144,4.464,277.145,4.026z"/>
				<circle fill="#d3d3d3" cx="284.313" cy="59.768" r="0.794"/>
				<path fill="#d3d3d3" d="M285.106,51.807c0.001-0.441-0.354-0.798-0.793-0.798c-0.439-0.001-0.795,0.356-0.795,0.798
					c0,0.436,0.355,0.791,0.795,0.792C284.752,52.598,285.107,52.242,285.106,51.807z"/>
				<circle fill="#d3d3d3" cx="284.312" cy="43.842" r="0.794"/>
				<path fill="#d3d3d3" d="M285.107,35.88c0.001-0.44-0.356-0.798-0.794-0.799c-0.439-0.001-0.795,0.358-0.795,0.798
					c0,0.438,0.355,0.793,0.795,0.793C284.752,36.672,285.108,36.316,285.107,35.88z"/>
				<circle fill="#d3d3d3" cx="284.313" cy="27.916" r="0.794"/>
				<path fill="#d3d3d3" d="M285.107,19.953c0-0.439-0.356-0.797-0.794-0.797c-0.439,0-0.795,0.357-0.796,0.797
					c0.001,0.436,0.356,0.793,0.796,0.793C284.751,20.746,285.107,20.39,285.107,19.953z"/>
				<circle fill="#d3d3d3" cx="284.313" cy="11.99" r="0.795"/>
				<path fill="#d3d3d3" d="M285.107,4.026c0.001-0.438-0.355-0.796-0.794-0.797c-0.439,0.001-0.795,0.358-0.795,0.798
					c0,0.438,0.355,0.793,0.795,0.792C284.751,4.819,285.106,4.463,285.107,4.026z"/>
				<circle fill="#d3d3d3" cx="292.275" cy="59.769" r="0.795"/>
				<path fill="#d3d3d3" d="M293.07,51.807c0.001-0.441-0.355-0.799-0.794-0.797c-0.439-0.001-0.795,0.355-0.796,0.797
					c0.001,0.436,0.356,0.791,0.796,0.792C292.714,52.598,293.071,52.242,293.07,51.807z"/>
				<circle fill="#d3d3d3" cx="292.275" cy="43.842" r="0.794"/>
				<circle fill="#d3d3d3" cx="292.276" cy="35.879" r="0.794"/>
				<path fill="#d3d3d3" d="M293.071,27.916c0-0.438-0.357-0.797-0.795-0.797c-0.439,0-0.795,0.359-0.795,0.797
					c0,0.437,0.355,0.794,0.795,0.795C292.714,28.711,293.07,28.354,293.071,27.916z"/>
				<path fill="#d3d3d3" d="M293.071,19.953c-0.002-0.439-0.356-0.797-0.795-0.797c-0.439,0.001-0.796,0.357-0.795,0.797
					c0,0.437,0.355,0.793,0.795,0.793C292.714,20.746,293.069,20.391,293.071,19.953z"/>
				<circle fill="#d3d3d3" cx="292.276" cy="11.99" r="0.795"/>
				<path fill="#d3d3d3" d="M293.071,4.027c-0.001-0.44-0.357-0.797-0.795-0.797c-0.439,0-0.795,0.357-0.795,0.797
					c-0.001,0.437,0.355,0.793,0.795,0.792C292.715,4.819,293.07,4.464,293.071,4.027z"/>
				<circle fill="#d3d3d3" cx="300.238" cy="59.769" r="0.795"/>
				<path fill="#d3d3d3" d="M301.033,51.807c0-0.44-0.355-0.798-0.794-0.797c-0.439-0.002-0.796,0.356-0.795,0.797
					c0,0.436,0.355,0.791,0.795,0.791C300.678,52.599,301.034,52.242,301.033,51.807z"/>
				<circle fill="#d3d3d3" cx="300.239" cy="43.842" r="0.794"/>
				<circle fill="#d3d3d3" cx="300.238" cy="35.879" r="0.795"/>
				<circle fill="#d3d3d3" cx="300.239" cy="27.916" r="0.795"/>
				<circle fill="#d3d3d3" cx="300.239" cy="19.953" r="0.795"/>
				<circle fill="#d3d3d3" cx="300.239" cy="11.99" r="0.795"/>
				<path fill="#d3d3d3" d="M301.034,4.026c-0.001-0.439-0.356-0.797-0.795-0.796c-0.439,0-0.795,0.355-0.795,0.796
					c0,0.437,0.355,0.794,0.795,0.794C300.678,4.819,301.033,4.464,301.034,4.026z"/>
				<circle fill="#d3d3d3" cx="308.202" cy="59.769" r="0.795"/>
				<path fill="#d3d3d3" d="M308.997,51.807c0-0.441-0.357-0.799-0.795-0.799c-0.439,0-0.795,0.357-0.795,0.799
					c0,0.436,0.355,0.791,0.795,0.791C308.64,52.598,308.997,52.242,308.997,51.807z"/>
				<circle fill="#d3d3d3" cx="308.202" cy="43.842" r="0.795"/>
				<path fill="#d3d3d3" d="M308.997,35.879c0-0.439-0.357-0.799-0.795-0.799c-0.439,0.001-0.795,0.359-0.795,0.799
					c0,0.437,0.355,0.793,0.795,0.793S308.995,36.316,308.997,35.879z"/>
				<circle fill="#d3d3d3" cx="308.202" cy="27.916" r="0.795"/>
				<circle fill="#d3d3d3" cx="308.202" cy="19.953" r="0.795"/>
				<circle fill="#d3d3d3" cx="308.202" cy="11.99" r="0.795"/>
				<path fill="#d3d3d3" d="M308.997,4.027c0-0.441-0.355-0.797-0.795-0.797c-0.438,0-0.795,0.356-0.795,0.797
					c0,0.437,0.355,0.793,0.795,0.792C308.641,4.819,308.997,4.463,308.997,4.027z"/>
			</g>
		</g>
		<circle fill="#d3d3d3" cx="260.071" cy="122.306" r="0.795"/>
		<path fill="#d3d3d3" d="M260.866,114.345c0-0.441-0.355-0.799-0.794-0.797c-0.44-0.002-0.796,0.355-0.796,0.797
			c0,0.436,0.355,0.791,0.797,0.791C260.511,115.136,260.866,114.78,260.866,114.345z"/>
		<circle fill="#d3d3d3" cx="260.072" cy="106.38" r="0.794"/>
		<circle fill="#d3d3d3" cx="260.071" cy="98.417" r="0.795"/>
		<circle fill="#d3d3d3" cx="260.071" cy="90.454" r="0.795"/>
		<path fill="#d3d3d3" d="M260.866,82.491c0-0.439-0.355-0.797-0.795-0.797c-0.438,0-0.795,0.357-0.795,0.797
			c0,0.436,0.356,0.793,0.796,0.793C260.51,83.284,260.866,82.927,260.866,82.491z"/>
		<circle fill="#d3d3d3" cx="260.071" cy="74.528" r="0.795"/>
		<path fill="#d3d3d3" d="M260.866,66.565c0-0.439-0.355-0.797-0.793-0.797c-0.44,0-0.797,0.357-0.797,0.797
			c0.001,0.436,0.357,0.791,0.797,0.793C260.511,67.358,260.866,67.003,260.866,66.565z"/>
		<circle fill="#d3d3d3" cx="260.071" cy="59.437" r="0.795"/>
		<path fill="#d3d3d3" d="M260.866,51.475c0-0.441-0.355-0.799-0.794-0.797c-0.44-0.001-0.796,0.355-0.796,0.797
			c0,0.436,0.355,0.791,0.797,0.791C260.511,52.266,260.866,51.911,260.866,51.475z"/>
		<circle fill="#d3d3d3" cx="260.072" cy="43.511" r="0.794"/>
		<circle fill="#d3d3d3" cx="260.071" cy="35.547" r="0.795"/>
		<circle fill="#d3d3d3" cx="260.071" cy="27.584" r="0.795"/>
		<path fill="#d3d3d3" d="M260.866,19.622c0-0.439-0.355-0.797-0.795-0.797c-0.438,0-0.795,0.357-0.795,0.797
			c0,0.437,0.356,0.793,0.796,0.793C260.51,20.415,260.866,20.057,260.866,19.622z"/>
		<circle fill="#d3d3d3" cx="260.071" cy="11.659" r="0.795"/>
		<path fill="#d3d3d3" d="M260.866,3.696c0-0.439-0.355-0.797-0.793-0.797c-0.44,0-0.797,0.357-0.797,0.797
			c0.001,0.436,0.357,0.792,0.797,0.793C260.511,4.489,260.866,4.133,260.866,3.696z"/>
	</g>
</g>
<g id="Layer_2">
</g>
</svg>
