<svg version="1.1" id="Layer_1" xmlns="http://www.w3.org/2000/svg" xmlns:xlink="http://www.w3.org/1999/xlink" x="0px" y="0px" xml:space="preserve" enable-background="new 0 0 122 84" viewBox="0 0 150 20" width="400px" height="200px">
<g>
	<g>
		<g>
			<g>
				<g>
					<g id="Plus">
						<g>
							<path fill="#D3D3D3" d="M27.22,8.008h-4.408V3.85c0-0.346-0.298-0.628-0.665-0.628s-0.666,0.282-0.666,0.627v4.159h-4.407         c-0.367,0-0.665,0.282-0.665,0.627c0,0.348,0.298,0.628,0.665,0.628h4.407v4.158c0,0.348,0.298,0.628,0.666,0.628         s0.665-0.28,0.665-0.628V9.263h4.408c0.368,0,0.665-0.28,0.665-0.628C27.885,8.29,27.588,8.008,27.22,8.008z"/>
						</g>
					</g>
				</g>
				<g>
				</g>
				<g>
				</g>
				<g>
				</g>
				<g>
				</g>
				<g>
				</g>
				<g>
				</g>
				<g>
				</g>
				<g>
				</g>
				<g>
				</g>
				<g>
				</g>
				<g>
				</g>
				<g>
				</g>
				<g>
				</g>
				<g>
				</g>
				<g>
				</g>
			</g>
			<g>
				<g>
					<g id="Plus_1_">
						<g>
							<path fill="#D3D3D3" d="M14.203,8.008H9.795V3.85c0-0.346-0.298-0.628-0.666-0.628c-0.367,0-0.665,0.282-0.665,0.627v4.159         H4.058c-0.368,0-0.666,0.282-0.666,0.627c0,0.348,0.298,0.628,0.666,0.628h4.407v4.158c0,0.348,0.298,0.628,0.665,0.628         c0.368,0,0.666-0.28,0.666-0.628V9.263h4.407c0.368,0,0.665-0.28,0.665-0.628C14.868,8.29,14.57,8.008,14.203,8.008z"/>
						</g>
					</g>
				</g>
				<g>
				</g>
				<g>
				</g>
				<g>
				</g>
				<g>
				</g>
				<g>
				</g>
				<g>
				</g>
				<g>
				</g>
				<g>
				</g>
				<g>
				</g>
				<g>
				</g>
				<g>
				</g>
				<g>
				</g>
				<g>
				</g>
				<g>
				</g>
				<g>
				</g>
			</g>
			<g>
				<g>
					<g id="Plus_2_">
						<g>
							<path fill="#D3D3D3" d="M40.237,8.008H35.83V3.85c0-0.346-0.297-0.628-0.665-0.628S34.5,3.503,34.5,3.849v4.159h-4.407         c-0.367,0-0.665,0.282-0.665,0.627c0,0.348,0.298,0.628,0.665,0.628H34.5v4.158c0,0.348,0.298,0.628,0.666,0.628         s0.665-0.28,0.665-0.628V9.263h4.407c0.368,0,0.666-0.28,0.666-0.628C40.903,8.29,40.605,8.008,40.237,8.008z"/>
						</g>
					</g>
				</g>
				<g>
				</g>
				<g>
				</g>
				<g>
				</g>
				<g>
				</g>
				<g>
				</g>
				<g>
				</g>
				<g>
				</g>
				<g>
				</g>
				<g>
				</g>
				<g>
				</g>
				<g>
				</g>
				<g>
				</g>
				<g>
				</g>
				<g>
				</g>
				<g>
				</g>
			</g>
		</g>
		<g>
			<g>
				<g>
					<g id="Plus_5_">
						<g>
							<path fill="#D3D3D3" d="M65.802,8.008h-4.407V3.85c0-0.346-0.298-0.628-0.665-0.628c-0.368,0-0.666,0.282-0.666,0.627v4.159         h-4.407c-0.367,0-0.666,0.282-0.666,0.627c0,0.348,0.298,0.628,0.666,0.628h4.407v4.158c0,0.348,0.298,0.628,0.666,0.628         c0.367,0,0.665-0.28,0.665-0.628V9.263h4.407c0.368,0,0.666-0.28,0.666-0.628C66.467,8.29,66.169,8.008,65.802,8.008z"/>
						</g>
					</g>
				</g>
				<g>
				</g>
				<g>
				</g>
				<g>
				</g>
				<g>
				</g>
				<g>
				</g>
				<g>
				</g>
				<g>
				</g>
				<g>
				</g>
				<g>
				</g>
				<g>
				</g>
				<g>
				</g>
				<g>
				</g>
				<g>
				</g>
				<g>
				</g>
				<g>
				</g>
			</g>
			<g>
				<g>
					<g id="Plus_4_">
						<g>
							<path fill="#D3D3D3" d="M52.785,8.008h-4.407V3.85c0-0.346-0.298-0.628-0.666-0.628c-0.368,0-0.666,0.282-0.666,0.627v4.159         h-4.407c-0.367,0-0.665,0.282-0.665,0.627c0,0.348,0.298,0.628,0.665,0.628h4.407v4.158c0,0.348,0.298,0.628,0.666,0.628         c0.367,0,0.666-0.28,0.666-0.628V9.263h4.407c0.367,0,0.665-0.28,0.665-0.628C53.45,8.29,53.152,8.008,52.785,8.008z"/>
						</g>
					</g>
				</g>
				<g>
				</g>
				<g>
				</g>
				<g>
				</g>
				<g>
				</g>
				<g>
				</g>
				<g>
				</g>
				<g>
				</g>
				<g>
				</g>
				<g>
				</g>
				<g>
				</g>
				<g>
				</g>
				<g>
				</g>
				<g>
				</g>
				<g>
				</g>
				<g>
				</g>
			</g>
			<g>
				<g>
					<g id="Plus_3_">
						<g>
							<path fill="#D3D3D3" d="M78.819,8.008h-4.407V3.85c0-0.346-0.298-0.628-0.666-0.628c-0.367,0-0.665,0.282-0.665,0.627v4.159         h-4.407c-0.368,0-0.666,0.282-0.666,0.627c0,0.348,0.298,0.628,0.666,0.628h4.407v4.158c0,0.348,0.298,0.628,0.665,0.628         c0.368,0,0.666-0.28,0.666-0.628V9.263h4.407c0.368,0,0.666-0.28,0.666-0.628C79.485,8.29,79.187,8.008,78.819,8.008z"/>
						</g>
					</g>
				</g>
				<g>
				</g>
				<g>
				</g>
				<g>
				</g>
				<g>
				</g>
				<g>
				</g>
				<g>
				</g>
				<g>
				</g>
				<g>
				</g>
				<g>
				</g>
				<g>
				</g>
				<g>
				</g>
				<g>
				</g>
				<g>
				</g>
				<g>
				</g>
				<g>
				</g>
			</g>
		</g>
	</g>
	<g>
		<g>
			<g>
				<g>
					<g id="Plus_11_">
						<g>
							<path fill="#D3D3D3" d="M66.128,8.008h-4.407V3.85c0-0.347-0.298-0.628-0.665-0.628c-0.368,0-0.666,0.281-0.666,0.628v4.158         h-4.407c-0.367,0-0.665,0.282-0.665,0.628c0,0.347,0.298,0.627,0.665,0.627h4.407v4.159c0,0.348,0.298,0.627,0.666,0.627         c0.367,0,0.665-0.281,0.665-0.627V9.264h4.407c0.368,0,0.666-0.281,0.666-0.627C66.793,8.29,66.496,8.008,66.128,8.008z"/>
						</g>
					</g>
				</g>
				<g>
				</g>
				<g>
				</g>
				<g>
				</g>
				<g>
				</g>
				<g>
				</g>
				<g>
				</g>
				<g>
				</g>
				<g>
				</g>
				<g>
				</g>
				<g>
				</g>
				<g>
				</g>
				<g>
				</g>
				<g>
				</g>
				<g>
				</g>
				<g>
				</g>
			</g>
			<g>
				<g>
					<g id="Plus_10_">
						<g>
							<path fill="#D3D3D3" d="M53.111,8.008h-4.407V3.85c0-0.347-0.298-0.628-0.666-0.628c-0.367,0-0.665,0.281-0.665,0.628v4.158         h-4.408c-0.367,0-0.665,0.282-0.665,0.628c0,0.347,0.298,0.627,0.665,0.627h4.408v4.159c0,0.348,0.298,0.627,0.665,0.627         c0.368,0,0.666-0.281,0.666-0.627V9.264h4.407c0.368,0,0.666-0.281,0.666-0.627C53.776,8.29,53.479,8.008,53.111,8.008z"/>
						</g>
					</g>
				</g>
				<g>
				</g>
				<g>
				</g>
				<g>
				</g>
				<g>
				</g>
				<g>
				</g>
				<g>
				</g>
				<g>
				</g>
				<g>
				</g>
				<g>
				</g>
				<g>
				</g>
				<g>
				</g>
				<g>
				</g>
				<g>
				</g>
				<g>
				</g>
				<g>
				</g>
			</g>
			<g>
				<g>
					<g id="Plus_9_">
						<g>
							<path fill="#D3D3D3" d="M79.146,8.008h-4.407V3.85c0-0.347-0.298-0.628-0.665-0.628c-0.368,0-0.666,0.281-0.666,0.628v4.158         h-4.407c-0.368,0-0.666,0.282-0.666,0.628c0,0.347,0.298,0.627,0.666,0.627h4.407v4.159c0,0.348,0.298,0.627,0.666,0.627         c0.367,0,0.665-0.281,0.665-0.627V9.264h4.407c0.368,0,0.666-0.281,0.666-0.627C79.811,8.29,79.513,8.008,79.146,8.008z"/>
						</g>
					</g>
				</g>
				<g>
				</g>
				<g>
				</g>
				<g>
				</g>
				<g>
				</g>
				<g>
				</g>
				<g>
				</g>
				<g>
				</g>
				<g>
				</g>
				<g>
				</g>
				<g>
				</g>
				<g>
				</g>
				<g>
				</g>
				<g>
				</g>
				<g>
				</g>
				<g>
				</g>
			</g>
		</g>
		<g>
			<g>
				<g>
					<g id="Plus_8_">
						<g>
							<path fill="#D3D3D3" d="M104.709,8.008h-4.407V3.85c0-0.347-0.297-0.628-0.665-0.628s-0.666,0.281-0.666,0.628v4.158h-4.407         c-0.368,0-0.666,0.282-0.666,0.628c0,0.347,0.298,0.627,0.666,0.627h4.407v4.159c0,0.348,0.298,0.627,0.666,0.627         s0.665-0.281,0.665-0.627V9.264h4.407c0.368,0,0.666-0.281,0.666-0.627C105.375,8.29,105.077,8.008,104.709,8.008z"/>
						</g>
					</g>
				</g>
				<g>
				</g>
				<g>
				</g>
				<g>
				</g>
				<g>
				</g>
				<g>
				</g>
				<g>
				</g>
				<g>
				</g>
				<g>
				</g>
				<g>
				</g>
				<g>
				</g>
				<g>
				</g>
				<g>
				</g>
				<g>
				</g>
				<g>
				</g>
				<g>
				</g>
			</g>
			<g>
				<g>
					<g id="Plus_7_">
						<g>
							<path fill="#D3D3D3" d="M91.692,8.008h-4.407V3.85c0-0.347-0.298-0.628-0.666-0.628c-0.368,0-0.665,0.281-0.665,0.628v4.158         h-4.407c-0.367,0-0.665,0.282-0.665,0.628c0,0.347,0.298,0.627,0.665,0.627h4.407v4.159c0,0.348,0.297,0.627,0.665,0.627         c0.367,0,0.666-0.281,0.666-0.627V9.264h4.407c0.367,0,0.665-0.281,0.665-0.627C92.357,8.29,92.06,8.008,91.692,8.008z"/>
						</g>
					</g>
				</g>
				<g>
				</g>
				<g>
				</g>
				<g>
				</g>
				<g>
				</g>
				<g>
				</g>
				<g>
				</g>
				<g>
				</g>
				<g>
				</g>
				<g>
				</g>
				<g>
				</g>
				<g>
				</g>
				<g>
				</g>
				<g>
				</g>
				<g>
				</g>
				<g>
				</g>
			</g>
			<g>
				<g>
					<g id="Plus_6_">
						<g>
							<path fill="#D3D3D3" d="M117.727,8.008h-4.407V3.85c0-0.347-0.298-0.628-0.666-0.628c-0.368,0-0.666,0.281-0.666,0.628v4.158         h-4.407c-0.367,0-0.666,0.282-0.666,0.628c0,0.347,0.298,0.627,0.666,0.627h4.407v4.159c0,0.348,0.298,0.627,0.666,0.627         c0.367,0,0.666-0.281,0.666-0.627V9.264h4.407c0.368,0,0.666-0.281,0.666-0.627C118.393,8.29,118.095,8.008,117.727,8.008z"/>
						</g>
					</g>
				</g>
				<g>
				</g>
				<g>
				</g>
				<g>
				</g>
				<g>
				</g>
				<g>
				</g>
				<g>
				</g>
				<g>
				</g>
				<g>
				</g>
				<g>
				</g>
				<g>
				</g>
				<g>
				</g>
				<g>
				</g>
				<g>
				</g>
				<g>
				</g>
				<g>
				</g>
			</g>
		</g>
	</g>
</g>
<g>
	<g>
		<g>
			<g>
				<g>
					<g id="Plus_23_">
						<g>
							<path fill="#D3D3D3" d="M27.177,21.208H22.77V17.05c0-0.347-0.298-0.628-0.666-0.628c-0.367,0-0.665,0.282-0.665,0.628v4.158         h-4.407c-0.368,0-0.666,0.282-0.666,0.628c0,0.347,0.298,0.628,0.666,0.628h4.407v4.158c0,0.348,0.298,0.628,0.665,0.628         c0.368,0,0.666-0.281,0.666-0.628v-4.158h4.407c0.368,0,0.666-0.281,0.666-0.628C27.843,21.49,27.545,21.208,27.177,21.208z"/>
						</g>
					</g>
				</g>
				<g>
				</g>
				<g>
				</g>
				<g>
				</g>
				<g>
				</g>
				<g>
				</g>
				<g>
				</g>
				<g>
				</g>
				<g>
				</g>
				<g>
				</g>
				<g>
				</g>
				<g>
				</g>
				<g>
				</g>
				<g>
				</g>
				<g>
				</g>
				<g>
				</g>
			</g>
			<g>
				<g>
					<g id="Plus_22_">
						<g>
							<path fill="#D3D3D3" d="M14.16,21.208H9.752V17.05c0-0.347-0.298-0.628-0.665-0.628c-0.368,0-0.666,0.282-0.666,0.628v4.158         H4.015c-0.367,0-0.666,0.282-0.666,0.628c0,0.347,0.298,0.628,0.666,0.628h4.407v4.158c0,0.348,0.298,0.628,0.666,0.628         c0.367,0,0.665-0.281,0.665-0.628v-4.158h4.407c0.368,0,0.666-0.281,0.666-0.628C14.825,21.49,14.527,21.208,14.16,21.208z"/>
						</g>
					</g>
				</g>
				<g>
				</g>
				<g>
				</g>
				<g>
				</g>
				<g>
				</g>
				<g>
				</g>
				<g>
				</g>
				<g>
				</g>
				<g>
				</g>
				<g>
				</g>
				<g>
				</g>
				<g>
				</g>
				<g>
				</g>
				<g>
				</g>
				<g>
				</g>
				<g>
				</g>
			</g>
			<g>
				<g>
					<g id="Plus_21_">
						<g>
							<path fill="#D3D3D3" d="M40.195,21.208h-4.407V17.05c0-0.347-0.298-0.628-0.666-0.628c-0.367,0-0.666,0.282-0.666,0.628         v4.158H30.05c-0.368,0-0.666,0.282-0.666,0.628c0,0.347,0.298,0.628,0.666,0.628h4.407v4.158         c0,0.348,0.298,0.628,0.666,0.628c0.368,0,0.666-0.281,0.666-0.628v-4.158h4.407c0.367,0,0.665-0.281,0.665-0.628         C40.86,21.49,40.562,21.208,40.195,21.208z"/>
						</g>
					</g>
				</g>
				<g>
				</g>
				<g>
				</g>
				<g>
				</g>
				<g>
				</g>
				<g>
				</g>
				<g>
				</g>
				<g>
				</g>
				<g>
				</g>
				<g>
				</g>
				<g>
				</g>
				<g>
				</g>
				<g>
				</g>
				<g>
				</g>
				<g>
				</g>
				<g>
				</g>
			</g>
		</g>
		<g>
			<g>
				<g>
					<g id="Plus_20_">
						<g>
							<path fill="#D3D3D3" d="M65.759,21.208h-4.408V17.05c0-0.347-0.297-0.628-0.665-0.628c-0.367,0-0.666,0.282-0.666,0.628         v4.158h-4.407c-0.368,0-0.666,0.282-0.666,0.628c0,0.347,0.298,0.628,0.666,0.628h4.407v4.158         c0,0.348,0.298,0.628,0.666,0.628c0.368,0,0.665-0.281,0.665-0.628v-4.158h4.408c0.367,0,0.666-0.281,0.666-0.628         C66.425,21.49,66.126,21.208,65.759,21.208z"/>
						</g>
					</g>
				</g>
				<g>
				</g>
				<g>
				</g>
				<g>
				</g>
				<g>
				</g>
				<g>
				</g>
				<g>
				</g>
				<g>
				</g>
				<g>
				</g>
				<g>
				</g>
				<g>
				</g>
				<g>
				</g>
				<g>
				</g>
				<g>
				</g>
				<g>
				</g>
				<g>
				</g>
			</g>
			<g>
				<g>
					<g id="Plus_19_">
						<g>
							<path fill="#D3D3D3" d="M52.742,21.208h-4.407V17.05c0-0.347-0.298-0.628-0.666-0.628s-0.665,0.282-0.665,0.628v4.158h-4.407         c-0.367,0-0.666,0.282-0.666,0.628c0,0.347,0.298,0.628,0.666,0.628h4.407v4.158c0,0.348,0.297,0.628,0.665,0.628         s0.666-0.281,0.666-0.628v-4.158h4.407c0.368,0,0.665-0.281,0.665-0.628C53.407,21.49,53.109,21.208,52.742,21.208z"/>
						</g>
					</g>
				</g>
				<g>
				</g>
				<g>
				</g>
				<g>
				</g>
				<g>
				</g>
				<g>
				</g>
				<g>
				</g>
				<g>
				</g>
				<g>
				</g>
				<g>
				</g>
				<g>
				</g>
				<g>
				</g>
				<g>
				</g>
				<g>
				</g>
				<g>
				</g>
				<g>
				</g>
			</g>
			<g>
				<g>
					<g id="Plus_18_">
						<g>
							<path fill="#D3D3D3" d="M78.776,21.208H74.37V17.05c0-0.347-0.298-0.628-0.666-0.628c-0.368,0-0.666,0.282-0.666,0.628v4.158         h-4.407c-0.367,0-0.666,0.282-0.666,0.628c0,0.347,0.298,0.628,0.666,0.628h4.407v4.158c0,0.348,0.298,0.628,0.666,0.628         c0.367,0,0.666-0.281,0.666-0.628v-4.158h4.407c0.368,0,0.666-0.281,0.666-0.628C79.442,21.49,79.144,21.208,78.776,21.208z"/>
						</g>
					</g>
				</g>
				<g>
				</g>
				<g>
				</g>
				<g>
				</g>
				<g>
				</g>
				<g>
				</g>
				<g>
				</g>
				<g>
				</g>
				<g>
				</g>
				<g>
				</g>
				<g>
				</g>
				<g>
				</g>
				<g>
				</g>
				<g>
				</g>
				<g>
				</g>
				<g>
				</g>
			</g>
		</g>
	</g>
	<g>
		<g>
			<g>
				<g>
					<g id="Plus_17_">
						<g>
							<path fill="#D3D3D3" d="M66.085,21.208h-4.407V17.05c0-0.346-0.297-0.628-0.665-0.628c-0.367,0-0.665,0.282-0.665,0.628         v4.158H55.94c-0.368,0-0.666,0.282-0.666,0.628c0,0.348,0.298,0.627,0.666,0.627h4.407v4.159         c0,0.348,0.298,0.627,0.665,0.627c0.368,0,0.665-0.28,0.665-0.627v-4.159h4.407c0.368,0,0.666-0.28,0.666-0.627         C66.75,21.49,66.453,21.208,66.085,21.208z"/>
						</g>
					</g>
				</g>
				<g>
				</g>
				<g>
				</g>
				<g>
				</g>
				<g>
				</g>
				<g>
				</g>
				<g>
				</g>
				<g>
				</g>
				<g>
				</g>
				<g>
				</g>
				<g>
				</g>
				<g>
				</g>
				<g>
				</g>
				<g>
				</g>
				<g>
				</g>
				<g>
				</g>
			</g>
			<g>
				<g>
					<g id="Plus_16_">
						<g>
							<path fill="#D3D3D3" d="M53.068,21.208h-4.407V17.05c0-0.346-0.298-0.628-0.665-0.628c-0.368,0-0.666,0.282-0.666,0.628         v4.158h-4.407c-0.367,0-0.666,0.282-0.666,0.628c0,0.348,0.298,0.627,0.666,0.627h4.407v4.159         c0,0.348,0.298,0.627,0.666,0.627c0.367,0,0.665-0.28,0.665-0.627v-4.159h4.407c0.368,0,0.666-0.28,0.666-0.627         C53.733,21.49,53.436,21.208,53.068,21.208z"/>
						</g>
					</g>
				</g>
				<g>
				</g>
				<g>
				</g>
				<g>
				</g>
				<g>
				</g>
				<g>
				</g>
				<g>
				</g>
				<g>
				</g>
				<g>
				</g>
				<g>
				</g>
				<g>
				</g>
				<g>
				</g>
				<g>
				</g>
				<g>
				</g>
				<g>
				</g>
				<g>
				</g>
			</g>
			<g>
				<g>
					<g id="Plus_15_">
						<g>
							<path fill="#D3D3D3" d="M79.103,21.208h-4.407V17.05c0-0.346-0.298-0.628-0.666-0.628c-0.367,0-0.666,0.282-0.666,0.628         v4.158h-4.407c-0.368,0-0.666,0.282-0.666,0.628c0,0.348,0.298,0.627,0.666,0.627h4.407v4.159         c0,0.348,0.298,0.627,0.666,0.627c0.368,0,0.666-0.28,0.666-0.627v-4.159h4.407c0.367,0,0.665-0.28,0.665-0.627         C79.768,21.49,79.47,21.208,79.103,21.208z"/>
						</g>
					</g>
				</g>
				<g>
				</g>
				<g>
				</g>
				<g>
				</g>
				<g>
				</g>
				<g>
				</g>
				<g>
				</g>
				<g>
				</g>
				<g>
				</g>
				<g>
				</g>
				<g>
				</g>
				<g>
				</g>
				<g>
				</g>
				<g>
				</g>
				<g>
				</g>
				<g>
				</g>
			</g>
		</g>
		<g>
			<g>
				<g>
					<g id="Plus_14_">
						<g>
							<path fill="#D3D3D3" d="M104.667,21.208h-4.407V17.05c0-0.346-0.298-0.628-0.666-0.628c-0.367,0-0.666,0.282-0.666,0.628         v4.158h-4.407c-0.368,0-0.666,0.282-0.666,0.628c0,0.348,0.298,0.627,0.666,0.627h4.407v4.159         c0,0.348,0.298,0.627,0.666,0.627c0.368,0,0.666-0.28,0.666-0.627v-4.159h4.407c0.367,0,0.666-0.28,0.666-0.627         C105.333,21.49,105.034,21.208,104.667,21.208z"/>
						</g>
					</g>
				</g>
				<g>
				</g>
				<g>
				</g>
				<g>
				</g>
				<g>
				</g>
				<g>
				</g>
				<g>
				</g>
				<g>
				</g>
				<g>
				</g>
				<g>
				</g>
				<g>
				</g>
				<g>
				</g>
				<g>
				</g>
				<g>
				</g>
				<g>
				</g>
				<g>
				</g>
			</g>
			<g>
				<g>
					<g id="Plus_13_">
						<g>
							<path fill="#D3D3D3" d="M91.649,21.208h-4.407V17.05c0-0.346-0.298-0.628-0.666-0.628c-0.367,0-0.665,0.282-0.665,0.628         v4.158h-4.407c-0.367,0-0.666,0.282-0.666,0.628c0,0.348,0.298,0.627,0.666,0.627h4.407v4.159         c0,0.348,0.298,0.627,0.665,0.627c0.368,0,0.666-0.28,0.666-0.627v-4.159h4.407c0.368,0,0.666-0.28,0.666-0.627         C92.315,21.49,92.017,21.208,91.649,21.208z"/>
						</g>
					</g>
				</g>
				<g>
				</g>
				<g>
				</g>
				<g>
				</g>
				<g>
				</g>
				<g>
				</g>
				<g>
				</g>
				<g>
				</g>
				<g>
				</g>
				<g>
				</g>
				<g>
				</g>
				<g>
				</g>
				<g>
				</g>
				<g>
				</g>
				<g>
				</g>
				<g>
				</g>
			</g>
			<g>
				<g>
					<g id="Plus_12_">
						<g>
							<path fill="#D3D3D3" d="M117.684,21.208h-4.407V17.05c0-0.346-0.298-0.628-0.666-0.628c-0.368,0-0.665,0.282-0.665,0.628         v4.158h-4.408c-0.367,0-0.665,0.282-0.665,0.628c0,0.348,0.298,0.627,0.665,0.627h4.408v4.159         c0,0.348,0.297,0.627,0.665,0.627c0.367,0,0.666-0.28,0.666-0.627v-4.159h4.407c0.368,0,0.666-0.28,0.666-0.627         C118.35,21.49,118.052,21.208,117.684,21.208z"/>
						</g>
					</g>
				</g>
				<g>
				</g>
				<g>
				</g>
				<g>
				</g>
				<g>
				</g>
				<g>
				</g>
				<g>
				</g>
				<g>
				</g>
				<g>
				</g>
				<g>
				</g>
				<g>
				</g>
				<g>
				</g>
				<g>
				</g>
				<g>
				</g>
				<g>
				</g>
				<g>
				</g>
			</g>
		</g>
	</g>
</g>
<g>
	<g>
		<g>
			<g>
				<g>
					<g id="Plus_35_">
						<g>
							<path fill="#D3D3D3" d="M27.526,75.961h-4.408v-4.158c0-0.346-0.298-0.628-0.665-0.628s-0.666,0.282-0.666,0.627v4.159         h-4.407c-0.367,0-0.665,0.282-0.665,0.627c0,0.348,0.298,0.628,0.665,0.628h4.407v4.158c0,0.348,0.298,0.628,0.666,0.628         s0.665-0.28,0.665-0.628v-4.158h4.408c0.367,0,0.665-0.28,0.665-0.628C28.191,76.243,27.894,75.961,27.526,75.961z"/>
						</g>
					</g>
				</g>
				<g>
				</g>
				<g>
				</g>
				<g>
				</g>
				<g>
				</g>
				<g>
				</g>
				<g>
				</g>
				<g>
				</g>
				<g>
				</g>
				<g>
				</g>
				<g>
				</g>
				<g>
				</g>
				<g>
				</g>
				<g>
				</g>
				<g>
				</g>
				<g>
				</g>
			</g>
			<g>
				<g>
					<g id="Plus_34_">
						<g>
							<path fill="#D3D3D3" d="M14.509,75.961h-4.407v-4.158c0-0.346-0.298-0.628-0.666-0.628c-0.367,0-0.665,0.282-0.665,0.627         v4.159H4.364c-0.368,0-0.666,0.282-0.666,0.627c0,0.348,0.298,0.628,0.666,0.628h4.407v4.158         c0,0.348,0.298,0.628,0.665,0.628c0.368,0,0.666-0.28,0.666-0.628v-4.158h4.407c0.368,0,0.665-0.28,0.665-0.628         C15.174,76.243,14.876,75.961,14.509,75.961z"/>
						</g>
					</g>
				</g>
				<g>
				</g>
				<g>
				</g>
				<g>
				</g>
				<g>
				</g>
				<g>
				</g>
				<g>
				</g>
				<g>
				</g>
				<g>
				</g>
				<g>
				</g>
				<g>
				</g>
				<g>
				</g>
				<g>
				</g>
				<g>
				</g>
				<g>
				</g>
				<g>
				</g>
			</g>
			<g>
				<g>
					<g id="Plus_33_">
						<g>
							<path fill="#D3D3D3" d="M40.543,75.961h-4.407v-4.158c0-0.346-0.297-0.628-0.665-0.628s-0.666,0.282-0.666,0.627v4.159         h-4.407c-0.367,0-0.665,0.282-0.665,0.627c0,0.348,0.298,0.628,0.665,0.628h4.407v4.158c0,0.348,0.298,0.628,0.666,0.628         s0.665-0.28,0.665-0.628v-4.158h4.407c0.368,0,0.666-0.28,0.666-0.628C41.209,76.243,40.911,75.961,40.543,75.961z"/>
						</g>
					</g>
				</g>
				<g>
				</g>
				<g>
				</g>
				<g>
				</g>
				<g>
				</g>
				<g>
				</g>
				<g>
				</g>
				<g>
				</g>
				<g>
				</g>
				<g>
				</g>
				<g>
				</g>
				<g>
				</g>
				<g>
				</g>
				<g>
				</g>
				<g>
				</g>
				<g>
				</g>
			</g>
		</g>
		<g>
			<g>
				<g>
					<g id="Plus_32_">
						<g>
							<path fill="#D3D3D3" d="M66.108,75.961h-4.407v-4.158c0-0.346-0.298-0.628-0.665-0.628c-0.368,0-0.666,0.282-0.666,0.627         v4.159h-4.407c-0.367,0-0.666,0.282-0.666,0.627c0,0.348,0.298,0.628,0.666,0.628h4.407v4.158         c0,0.348,0.298,0.628,0.666,0.628c0.367,0,0.665-0.28,0.665-0.628v-4.158h4.407c0.368,0,0.666-0.28,0.666-0.628         C66.773,76.243,66.476,75.961,66.108,75.961z"/>
						</g>
					</g>
				</g>
				<g>
				</g>
				<g>
				</g>
				<g>
				</g>
				<g>
				</g>
				<g>
				</g>
				<g>
				</g>
				<g>
				</g>
				<g>
				</g>
				<g>
				</g>
				<g>
				</g>
				<g>
				</g>
				<g>
				</g>
				<g>
				</g>
				<g>
				</g>
				<g>
				</g>
			</g>
			<g>
				<g>
					<g id="Plus_31_">
						<g>
							<path fill="#D3D3D3" d="M53.091,75.961h-4.407v-4.158c0-0.346-0.298-0.628-0.666-0.628c-0.368,0-0.666,0.282-0.666,0.627         v4.159h-4.407c-0.367,0-0.665,0.282-0.665,0.627c0,0.348,0.298,0.628,0.665,0.628h4.407v4.158         c0,0.348,0.298,0.628,0.666,0.628c0.367,0,0.666-0.28,0.666-0.628v-4.158h4.407c0.367,0,0.665-0.28,0.665-0.628         C53.756,76.243,53.458,75.961,53.091,75.961z"/>
						</g>
					</g>
				</g>
				<g>
				</g>
				<g>
				</g>
				<g>
				</g>
				<g>
				</g>
				<g>
				</g>
				<g>
				</g>
				<g>
				</g>
				<g>
				</g>
				<g>
				</g>
				<g>
				</g>
				<g>
				</g>
				<g>
				</g>
				<g>
				</g>
				<g>
				</g>
				<g>
				</g>
			</g>
			<g>
				<g>
					<g id="Plus_30_">
						<g>
							<path fill="#D3D3D3" d="M79.125,75.961h-4.407v-4.158c0-0.346-0.298-0.628-0.666-0.628c-0.367,0-0.665,0.282-0.665,0.627         v4.159H68.98c-0.368,0-0.666,0.282-0.666,0.627c0,0.348,0.298,0.628,0.666,0.628h4.407v4.158         c0,0.348,0.298,0.628,0.665,0.628c0.368,0,0.666-0.28,0.666-0.628v-4.158h4.407c0.368,0,0.666-0.28,0.666-0.628         C79.791,76.243,79.493,75.961,79.125,75.961z"/>
						</g>
					</g>
				</g>
				<g>
				</g>
				<g>
				</g>
				<g>
				</g>
				<g>
				</g>
				<g>
				</g>
				<g>
				</g>
				<g>
				</g>
				<g>
				</g>
				<g>
				</g>
				<g>
				</g>
				<g>
				</g>
				<g>
				</g>
				<g>
				</g>
				<g>
				</g>
				<g>
				</g>
			</g>
		</g>
	</g>
	<g>
		<g>
			<g>
				<g>
					<g id="Plus_29_">
						<g>
							<path fill="#D3D3D3" d="M66.434,75.961h-4.407v-4.158c0-0.347-0.298-0.628-0.665-0.628c-0.368,0-0.666,0.281-0.666,0.628         v4.158h-4.407c-0.367,0-0.665,0.282-0.665,0.628c0,0.347,0.298,0.627,0.665,0.627h4.407v4.159         c0,0.348,0.298,0.627,0.666,0.627c0.367,0,0.665-0.281,0.665-0.627v-4.159h4.407c0.368,0,0.666-0.28,0.666-0.627         C67.1,76.243,66.802,75.961,66.434,75.961z"/>
						</g>
					</g>
				</g>
				<g>
				</g>
				<g>
				</g>
				<g>
				</g>
				<g>
				</g>
				<g>
				</g>
				<g>
				</g>
				<g>
				</g>
				<g>
				</g>
				<g>
				</g>
				<g>
				</g>
				<g>
				</g>
				<g>
				</g>
				<g>
				</g>
				<g>
				</g>
				<g>
				</g>
			</g>
			<g>
				<g>
					<g id="Plus_28_">
						<g>
							<path fill="#D3D3D3" d="M53.417,75.961H49.01v-4.158c0-0.347-0.298-0.628-0.666-0.628c-0.367,0-0.665,0.281-0.665,0.628         v4.158h-4.408c-0.367,0-0.665,0.282-0.665,0.628c0,0.347,0.298,0.627,0.665,0.627h4.408v4.159         c0,0.348,0.298,0.627,0.665,0.627c0.368,0,0.666-0.281,0.666-0.627v-4.159h4.407c0.368,0,0.666-0.28,0.666-0.627         C54.083,76.243,53.785,75.961,53.417,75.961z"/>
						</g>
					</g>
				</g>
				<g>
				</g>
				<g>
				</g>
				<g>
				</g>
				<g>
				</g>
				<g>
				</g>
				<g>
				</g>
				<g>
				</g>
				<g>
				</g>
				<g>
				</g>
				<g>
				</g>
				<g>
				</g>
				<g>
				</g>
				<g>
				</g>
				<g>
				</g>
				<g>
				</g>
			</g>
			<g>
				<g>
					<g id="Plus_27_">
						<g>
							<path fill="#D3D3D3" d="M79.452,75.961h-4.407v-4.158c0-0.347-0.298-0.628-0.665-0.628c-0.368,0-0.666,0.281-0.666,0.628         v4.158h-4.407c-0.368,0-0.666,0.282-0.666,0.628c0,0.347,0.298,0.627,0.666,0.627h4.407v4.159         c0,0.348,0.298,0.627,0.666,0.627c0.367,0,0.665-0.281,0.665-0.627v-4.159h4.407c0.368,0,0.666-0.28,0.666-0.627         C80.117,76.243,79.819,75.961,79.452,75.961z"/>
						</g>
					</g>
				</g>
				<g>
				</g>
				<g>
				</g>
				<g>
				</g>
				<g>
				</g>
				<g>
				</g>
				<g>
				</g>
				<g>
				</g>
				<g>
				</g>
				<g>
				</g>
				<g>
				</g>
				<g>
				</g>
				<g>
				</g>
				<g>
				</g>
				<g>
				</g>
				<g>
				</g>
			</g>
		</g>
		<g>
			<g>
				<g>
					<g id="Plus_26_">
						<g>
							<path fill="#D3D3D3" d="M105.017,75.961h-4.408v-4.158c0-0.347-0.297-0.628-0.665-0.628c-0.367,0-0.666,0.281-0.666,0.628         v4.158h-4.406c-0.368,0-0.666,0.282-0.666,0.628c0,0.347,0.298,0.627,0.666,0.627h4.406v4.159         c0,0.348,0.299,0.627,0.666,0.627c0.368,0,0.665-0.281,0.665-0.627v-4.159h4.408c0.367,0,0.665-0.28,0.665-0.627         C105.682,76.243,105.384,75.961,105.017,75.961z"/>
						</g>
					</g>
				</g>
				<g>
				</g>
				<g>
				</g>
				<g>
				</g>
				<g>
				</g>
				<g>
				</g>
				<g>
				</g>
				<g>
				</g>
				<g>
				</g>
				<g>
				</g>
				<g>
				</g>
				<g>
				</g>
				<g>
				</g>
				<g>
				</g>
				<g>
				</g>
				<g>
				</g>
			</g>
			<g>
				<g>
					<g id="Plus_25_">
						<g>
							<path fill="#D3D3D3" d="M91.999,75.961h-4.407v-4.158c0-0.347-0.298-0.628-0.665-0.628c-0.368,0-0.665,0.281-0.665,0.628         v4.158h-4.408c-0.367,0-0.665,0.282-0.665,0.628c0,0.347,0.298,0.627,0.665,0.627h4.408v4.159         c0,0.348,0.297,0.627,0.665,0.627c0.367,0,0.665-0.281,0.665-0.627v-4.159h4.407c0.368,0,0.666-0.28,0.666-0.627         C92.664,76.243,92.366,75.961,91.999,75.961z"/>
						</g>
					</g>
				</g>
				<g>
				</g>
				<g>
				</g>
				<g>
				</g>
				<g>
				</g>
				<g>
				</g>
				<g>
				</g>
				<g>
				</g>
				<g>
				</g>
				<g>
				</g>
				<g>
				</g>
				<g>
				</g>
				<g>
				</g>
				<g>
				</g>
				<g>
				</g>
				<g>
				</g>
			</g>
			<g>
				<g>
					<g id="Plus_24_">
						<g>
							<path fill="#D3D3D3" d="M118.033,75.961h-4.406v-4.158c0-0.347-0.299-0.628-0.666-0.628c-0.368,0-0.665,0.281-0.665,0.628         v4.158h-4.407c-0.368,0-0.666,0.282-0.666,0.628c0,0.347,0.298,0.627,0.666,0.627h4.407v4.159         c0,0.348,0.297,0.627,0.665,0.627c0.367,0,0.666-0.281,0.666-0.627v-4.159h4.406c0.368,0,0.666-0.28,0.666-0.627         C118.699,76.243,118.401,75.961,118.033,75.961z"/>
						</g>
					</g>
				</g>
				<g>
				</g>
				<g>
				</g>
				<g>
				</g>
				<g>
				</g>
				<g>
				</g>
				<g>
				</g>
				<g>
				</g>
				<g>
				</g>
				<g>
				</g>
				<g>
				</g>
				<g>
				</g>
				<g>
				</g>
				<g>
				</g>
				<g>
				</g>
				<g>
				</g>
			</g>
		</g>
	</g>
</g>
<g>
	<g>
		<g>
			<g>
				<g>
					<g id="Plus_47_">
						<g>
							<path fill="#D3D3D3" d="M27.177,49.346H22.77v-4.158c0-0.347-0.298-0.628-0.666-0.628c-0.367,0-0.665,0.281-0.665,0.627         v4.159h-4.407c-0.368,0-0.666,0.281-0.666,0.627c0,0.347,0.298,0.628,0.666,0.628h4.407v4.158         c0,0.348,0.298,0.628,0.665,0.628c0.368,0,0.666-0.281,0.666-0.628v-4.158h4.407c0.368,0,0.666-0.281,0.666-0.628         C27.843,49.627,27.545,49.346,27.177,49.346z"/>
						</g>
					</g>
				</g>
				<g>
				</g>
				<g>
				</g>
				<g>
				</g>
				<g>
				</g>
				<g>
				</g>
				<g>
				</g>
				<g>
				</g>
				<g>
				</g>
				<g>
				</g>
				<g>
				</g>
				<g>
				</g>
				<g>
				</g>
				<g>
				</g>
				<g>
				</g>
				<g>
				</g>
			</g>
			<g>
				<g>
					<g id="Plus_46_">
						<g>
							<path fill="#D3D3D3" d="M14.16,49.346H9.752v-4.158c0-0.347-0.298-0.628-0.665-0.628c-0.368,0-0.666,0.281-0.666,0.627v4.159         H4.015c-0.367,0-0.666,0.281-0.666,0.627c0,0.347,0.298,0.628,0.666,0.628h4.407v4.158c0,0.348,0.298,0.628,0.666,0.628         c0.367,0,0.665-0.281,0.665-0.628v-4.158h4.407c0.368,0,0.666-0.281,0.666-0.628C14.825,49.627,14.527,49.346,14.16,49.346z"/>
						</g>
					</g>
				</g>
				<g>
				</g>
				<g>
				</g>
				<g>
				</g>
				<g>
				</g>
				<g>
				</g>
				<g>
				</g>
				<g>
				</g>
				<g>
				</g>
				<g>
				</g>
				<g>
				</g>
				<g>
				</g>
				<g>
				</g>
				<g>
				</g>
				<g>
				</g>
				<g>
				</g>
			</g>
			<g>
				<g>
					<g id="Plus_45_">
						<g>
							<path fill="#D3D3D3" d="M40.195,49.346h-4.407v-4.158c0-0.347-0.298-0.628-0.666-0.628c-0.367,0-0.666,0.281-0.666,0.627         v4.159H30.05c-0.368,0-0.666,0.281-0.666,0.627c0,0.347,0.298,0.628,0.666,0.628h4.407v4.158         c0,0.348,0.298,0.628,0.666,0.628c0.368,0,0.666-0.281,0.666-0.628v-4.158h4.407c0.367,0,0.665-0.281,0.665-0.628         C40.86,49.627,40.562,49.346,40.195,49.346z"/>
						</g>
					</g>
				</g>
				<g>
				</g>
				<g>
				</g>
				<g>
				</g>
				<g>
				</g>
				<g>
				</g>
				<g>
				</g>
				<g>
				</g>
				<g>
				</g>
				<g>
				</g>
				<g>
				</g>
				<g>
				</g>
				<g>
				</g>
				<g>
				</g>
				<g>
				</g>
				<g>
				</g>
			</g>
		</g>
		<g>
			<g>
				<g>
					<g id="Plus_44_">
						<g>
							<path fill="#D3D3D3" d="M65.759,49.346h-4.408v-4.158c0-0.347-0.297-0.628-0.665-0.628c-0.367,0-0.666,0.281-0.666,0.627         v4.159h-4.407c-0.368,0-0.666,0.281-0.666,0.627c0,0.347,0.298,0.628,0.666,0.628h4.407v4.158         c0,0.348,0.298,0.628,0.666,0.628c0.368,0,0.665-0.281,0.665-0.628v-4.158h4.408c0.367,0,0.666-0.281,0.666-0.628         C66.425,49.627,66.126,49.346,65.759,49.346z"/>
						</g>
					</g>
				</g>
				<g>
				</g>
				<g>
				</g>
				<g>
				</g>
				<g>
				</g>
				<g>
				</g>
				<g>
				</g>
				<g>
				</g>
				<g>
				</g>
				<g>
				</g>
				<g>
				</g>
				<g>
				</g>
				<g>
				</g>
				<g>
				</g>
				<g>
				</g>
				<g>
				</g>
			</g>
			<g>
				<g>
					<g id="Plus_43_">
						<g>
							<path fill="#D3D3D3" d="M52.742,49.346h-4.407v-4.158c0-0.347-0.298-0.628-0.666-0.628s-0.665,0.281-0.665,0.627v4.159         h-4.407c-0.367,0-0.666,0.281-0.666,0.627c0,0.347,0.298,0.628,0.666,0.628h4.407v4.158c0,0.348,0.297,0.628,0.665,0.628         s0.666-0.281,0.666-0.628v-4.158h4.407c0.368,0,0.665-0.281,0.665-0.628C53.407,49.627,53.109,49.346,52.742,49.346z"/>
						</g>
					</g>
				</g>
				<g>
				</g>
				<g>
				</g>
				<g>
				</g>
				<g>
				</g>
				<g>
				</g>
				<g>
				</g>
				<g>
				</g>
				<g>
				</g>
				<g>
				</g>
				<g>
				</g>
				<g>
				</g>
				<g>
				</g>
				<g>
				</g>
				<g>
				</g>
				<g>
				</g>
			</g>
			<g>
				<g>
					<g id="Plus_42_">
						<g>
							<path fill="#D3D3D3" d="M78.776,49.346H74.37v-4.158c0-0.347-0.298-0.628-0.666-0.628c-0.368,0-0.666,0.281-0.666,0.627         v4.159h-4.407c-0.367,0-0.666,0.281-0.666,0.627c0,0.347,0.298,0.628,0.666,0.628h4.407v4.158         c0,0.348,0.298,0.628,0.666,0.628c0.367,0,0.666-0.281,0.666-0.628v-4.158h4.407c0.368,0,0.666-0.281,0.666-0.628         C79.442,49.627,79.144,49.346,78.776,49.346z"/>
						</g>
					</g>
				</g>
				<g>
				</g>
				<g>
				</g>
				<g>
				</g>
				<g>
				</g>
				<g>
				</g>
				<g>
				</g>
				<g>
				</g>
				<g>
				</g>
				<g>
				</g>
				<g>
				</g>
				<g>
				</g>
				<g>
				</g>
				<g>
				</g>
				<g>
				</g>
				<g>
				</g>
			</g>
		</g>
	</g>
	<g>
		<g>
			<g>
				<g>
					<g id="Plus_41_">
						<g>
							<path fill="#D3D3D3" d="M66.085,49.346h-4.407v-4.158c0-0.346-0.297-0.628-0.665-0.628c-0.367,0-0.665,0.282-0.665,0.628         v4.158H55.94c-0.368,0-0.666,0.282-0.666,0.628c0,0.348,0.298,0.628,0.666,0.628h4.407v4.158         c0,0.348,0.298,0.628,0.665,0.628c0.368,0,0.665-0.281,0.665-0.628v-4.158h4.407c0.368,0,0.666-0.281,0.666-0.628         C66.75,49.628,66.453,49.346,66.085,49.346z"/>
						</g>
					</g>
				</g>
				<g>
				</g>
				<g>
				</g>
				<g>
				</g>
				<g>
				</g>
				<g>
				</g>
				<g>
				</g>
				<g>
				</g>
				<g>
				</g>
				<g>
				</g>
				<g>
				</g>
				<g>
				</g>
				<g>
				</g>
				<g>
				</g>
				<g>
				</g>
				<g>
				</g>
			</g>
			<g>
				<g>
					<g id="Plus_40_">
						<g>
							<path fill="#D3D3D3" d="M53.068,49.346h-4.407v-4.158c0-0.346-0.298-0.628-0.665-0.628c-0.368,0-0.666,0.282-0.666,0.628         v4.158h-4.407c-0.367,0-0.666,0.282-0.666,0.628c0,0.348,0.298,0.628,0.666,0.628h4.407v4.158         c0,0.348,0.298,0.628,0.666,0.628c0.367,0,0.665-0.281,0.665-0.628v-4.158h4.407c0.368,0,0.666-0.281,0.666-0.628         C53.733,49.628,53.436,49.346,53.068,49.346z"/>
						</g>
					</g>
				</g>
				<g>
				</g>
				<g>
				</g>
				<g>
				</g>
				<g>
				</g>
				<g>
				</g>
				<g>
				</g>
				<g>
				</g>
				<g>
				</g>
				<g>
				</g>
				<g>
				</g>
				<g>
				</g>
				<g>
				</g>
				<g>
				</g>
				<g>
				</g>
				<g>
				</g>
			</g>
			<g>
				<g>
					<g id="Plus_39_">
						<g>
							<path fill="#D3D3D3" d="M79.103,49.346h-4.407v-4.158c0-0.346-0.298-0.628-0.666-0.628c-0.367,0-0.666,0.282-0.666,0.628         v4.158h-4.407c-0.368,0-0.666,0.282-0.666,0.628c0,0.348,0.298,0.628,0.666,0.628h4.407v4.158         c0,0.348,0.298,0.628,0.666,0.628c0.368,0,0.666-0.281,0.666-0.628v-4.158h4.407c0.367,0,0.665-0.281,0.665-0.628         C79.768,49.628,79.47,49.346,79.103,49.346z"/>
						</g>
					</g>
				</g>
				<g>
				</g>
				<g>
				</g>
				<g>
				</g>
				<g>
				</g>
				<g>
				</g>
				<g>
				</g>
				<g>
				</g>
				<g>
				</g>
				<g>
				</g>
				<g>
				</g>
				<g>
				</g>
				<g>
				</g>
				<g>
				</g>
				<g>
				</g>
				<g>
				</g>
			</g>
		</g>
		<g>
			<g>
				<g>
					<g id="Plus_38_">
						<g>
							<path fill="#D3D3D3" d="M104.667,49.346h-4.407v-4.158c0-0.346-0.298-0.628-0.666-0.628c-0.367,0-0.666,0.282-0.666,0.628         v4.158h-4.407c-0.368,0-0.666,0.282-0.666,0.628c0,0.348,0.298,0.628,0.666,0.628h4.407v4.158         c0,0.348,0.298,0.628,0.666,0.628c0.368,0,0.666-0.281,0.666-0.628v-4.158h4.407c0.367,0,0.666-0.281,0.666-0.628         C105.333,49.628,105.034,49.346,104.667,49.346z"/>
						</g>
					</g>
				</g>
				<g>
				</g>
				<g>
				</g>
				<g>
				</g>
				<g>
				</g>
				<g>
				</g>
				<g>
				</g>
				<g>
				</g>
				<g>
				</g>
				<g>
				</g>
				<g>
				</g>
				<g>
				</g>
				<g>
				</g>
				<g>
				</g>
				<g>
				</g>
				<g>
				</g>
			</g>
			<g>
				<g>
					<g id="Plus_37_">
						<g>
							<path fill="#D3D3D3" d="M91.649,49.346h-4.407v-4.158c0-0.346-0.298-0.628-0.666-0.628c-0.367,0-0.665,0.282-0.665,0.628         v4.158h-4.407c-0.367,0-0.666,0.282-0.666,0.628c0,0.348,0.298,0.628,0.666,0.628h4.407v4.158         c0,0.348,0.298,0.628,0.665,0.628c0.368,0,0.666-0.281,0.666-0.628v-4.158h4.407c0.368,0,0.666-0.281,0.666-0.628         C92.315,49.628,92.017,49.346,91.649,49.346z"/>
						</g>
					</g>
				</g>
				<g>
				</g>
				<g>
				</g>
				<g>
				</g>
				<g>
				</g>
				<g>
				</g>
				<g>
				</g>
				<g>
				</g>
				<g>
				</g>
				<g>
				</g>
				<g>
				</g>
				<g>
				</g>
				<g>
				</g>
				<g>
				</g>
				<g>
				</g>
				<g>
				</g>
			</g>
			<g>
				<g>
					<g id="Plus_36_">
						<g>
							<path fill="#D3D3D3" d="M117.684,49.346h-4.407v-4.158c0-0.346-0.298-0.628-0.666-0.628c-0.368,0-0.665,0.282-0.665,0.628         v4.158h-4.408c-0.367,0-0.665,0.282-0.665,0.628c0,0.348,0.298,0.628,0.665,0.628h4.408v4.158         c0,0.348,0.297,0.628,0.665,0.628c0.367,0,0.666-0.281,0.666-0.628v-4.158h4.407c0.368,0,0.666-0.281,0.666-0.628         C118.35,49.628,118.052,49.346,117.684,49.346z"/>
						</g>
					</g>
				</g>
				<g>
				</g>
				<g>
				</g>
				<g>
				</g>
				<g>
				</g>
				<g>
				</g>
				<g>
				</g>
				<g>
				</g>
				<g>
				</g>
				<g>
				</g>
				<g>
				</g>
				<g>
				</g>
				<g>
				</g>
				<g>
				</g>
				<g>
				</g>
				<g>
				</g>
			</g>
		</g>
	</g>
</g>
<g>
	<g>
		<g>
			<g>
				<g>
					<g id="Plus_59_">
						<g>
							<path fill="#D3D3D3" d="M27.31,62.2h-4.408v-4.158c0-0.346-0.298-0.628-0.665-0.628s-0.666,0.282-0.666,0.627V62.2h-4.407         c-0.367,0-0.665,0.282-0.665,0.627c0,0.348,0.298,0.628,0.665,0.628h4.407v4.158c0,0.348,0.298,0.628,0.666,0.628         s0.665-0.28,0.665-0.628v-4.158h4.408c0.367,0,0.665-0.28,0.665-0.628C27.975,62.481,27.677,62.2,27.31,62.2z"/>
						</g>
					</g>
				</g>
				<g>
				</g>
				<g>
				</g>
				<g>
				</g>
				<g>
				</g>
				<g>
				</g>
				<g>
				</g>
				<g>
				</g>
				<g>
				</g>
				<g>
				</g>
				<g>
				</g>
				<g>
				</g>
				<g>
				</g>
				<g>
				</g>
				<g>
				</g>
				<g>
				</g>
			</g>
			<g>
				<g>
					<g id="Plus_58_">
						<g>
							<path fill="#D3D3D3" d="M14.292,62.2H9.885v-4.158c0-0.346-0.298-0.628-0.666-0.628c-0.367,0-0.665,0.282-0.665,0.627V62.2         H4.147c-0.368,0-0.666,0.282-0.666,0.627c0,0.348,0.298,0.628,0.666,0.628h4.407v4.158c0,0.348,0.298,0.628,0.665,0.628         c0.368,0,0.666-0.28,0.666-0.628v-4.158h4.407c0.368,0,0.665-0.28,0.665-0.628C14.957,62.481,14.66,62.2,14.292,62.2z"/>
						</g>
					</g>
				</g>
				<g>
				</g>
				<g>
				</g>
				<g>
				</g>
				<g>
				</g>
				<g>
				</g>
				<g>
				</g>
				<g>
				</g>
				<g>
				</g>
				<g>
				</g>
				<g>
				</g>
				<g>
				</g>
				<g>
				</g>
				<g>
				</g>
				<g>
				</g>
				<g>
				</g>
			</g>
			<g>
				<g>
					<g id="Plus_57_">
						<g>
							<path fill="#D3D3D3" d="M40.327,62.2h-4.407v-4.158c0-0.346-0.297-0.628-0.665-0.628s-0.666,0.282-0.666,0.627V62.2h-4.407         c-0.367,0-0.665,0.282-0.665,0.627c0,0.348,0.298,0.628,0.665,0.628h4.407v4.158c0,0.348,0.298,0.628,0.666,0.628         s0.665-0.28,0.665-0.628v-4.158h4.407c0.368,0,0.666-0.28,0.666-0.628C40.992,62.481,40.694,62.2,40.327,62.2z"/>
						</g>
					</g>
				</g>
				<g>
				</g>
				<g>
				</g>
				<g>
				</g>
				<g>
				</g>
				<g>
				</g>
				<g>
				</g>
				<g>
				</g>
				<g>
				</g>
				<g>
				</g>
				<g>
				</g>
				<g>
				</g>
				<g>
				</g>
				<g>
				</g>
				<g>
				</g>
				<g>
				</g>
			</g>
		</g>
		<g>
			<g>
				<g>
					<g id="Plus_56_">
						<g>
							<path fill="#D3D3D3" d="M65.891,62.2h-4.407v-4.158c0-0.346-0.298-0.628-0.665-0.628c-0.368,0-0.666,0.282-0.666,0.627V62.2         h-4.407c-0.367,0-0.666,0.282-0.666,0.627c0,0.348,0.298,0.628,0.666,0.628h4.407v4.158c0,0.348,0.298,0.628,0.666,0.628         c0.367,0,0.665-0.28,0.665-0.628v-4.158h4.407c0.368,0,0.666-0.28,0.666-0.628C66.557,62.481,66.259,62.2,65.891,62.2z"/>
						</g>
					</g>
				</g>
				<g>
				</g>
				<g>
				</g>
				<g>
				</g>
				<g>
				</g>
				<g>
				</g>
				<g>
				</g>
				<g>
				</g>
				<g>
				</g>
				<g>
				</g>
				<g>
				</g>
				<g>
				</g>
				<g>
				</g>
				<g>
				</g>
				<g>
				</g>
				<g>
				</g>
			</g>
			<g>
				<g>
					<g id="Plus_55_">
						<g>
							<path fill="#D3D3D3" d="M52.874,62.2h-4.407v-4.158c0-0.346-0.298-0.628-0.666-0.628c-0.368,0-0.666,0.282-0.666,0.627V62.2         h-4.407c-0.367,0-0.665,0.282-0.665,0.627c0,0.348,0.298,0.628,0.665,0.628h4.407v4.158c0,0.348,0.298,0.628,0.666,0.628         c0.367,0,0.666-0.28,0.666-0.628v-4.158h4.407c0.367,0,0.665-0.28,0.665-0.628C53.539,62.481,53.241,62.2,52.874,62.2z"/>
						</g>
					</g>
				</g>
				<g>
				</g>
				<g>
				</g>
				<g>
				</g>
				<g>
				</g>
				<g>
				</g>
				<g>
				</g>
				<g>
				</g>
				<g>
				</g>
				<g>
				</g>
				<g>
				</g>
				<g>
				</g>
				<g>
				</g>
				<g>
				</g>
				<g>
				</g>
				<g>
				</g>
			</g>
			<g>
				<g>
					<g id="Plus_54_">
						<g>
							<path fill="#D3D3D3" d="M78.909,62.2h-4.407v-4.158c0-0.346-0.298-0.628-0.666-0.628c-0.367,0-0.665,0.282-0.665,0.627V62.2         h-4.407c-0.368,0-0.666,0.282-0.666,0.627c0,0.348,0.298,0.628,0.666,0.628h4.407v4.158c0,0.348,0.298,0.628,0.665,0.628         c0.368,0,0.666-0.28,0.666-0.628v-4.158h4.407c0.368,0,0.666-0.28,0.666-0.628C79.574,62.481,79.276,62.2,78.909,62.2z"/>
						</g>
					</g>
				</g>
				<g>
				</g>
				<g>
				</g>
				<g>
				</g>
				<g>
				</g>
				<g>
				</g>
				<g>
				</g>
				<g>
				</g>
				<g>
				</g>
				<g>
				</g>
				<g>
				</g>
				<g>
				</g>
				<g>
				</g>
				<g>
				</g>
				<g>
				</g>
				<g>
				</g>
			</g>
		</g>
	</g>
	<g>
		<g>
			<g>
				<g>
					<g id="Plus_53_">
						<g>
							<path fill="#D3D3D3" d="M66.217,62.2H61.81v-4.158c0-0.347-0.298-0.628-0.665-0.628c-0.368,0-0.666,0.281-0.666,0.628V62.2         h-4.407c-0.367,0-0.665,0.282-0.665,0.628c0,0.347,0.298,0.627,0.665,0.627h4.407v4.159c0,0.348,0.298,0.627,0.666,0.627         c0.367,0,0.665-0.281,0.665-0.627v-4.159h4.407c0.368,0,0.666-0.28,0.666-0.627C66.883,62.482,66.585,62.2,66.217,62.2z"/>
						</g>
					</g>
				</g>
				<g>
				</g>
				<g>
				</g>
				<g>
				</g>
				<g>
				</g>
				<g>
				</g>
				<g>
				</g>
				<g>
				</g>
				<g>
				</g>
				<g>
				</g>
				<g>
				</g>
				<g>
				</g>
				<g>
				</g>
				<g>
				</g>
				<g>
				</g>
				<g>
				</g>
			</g>
			<g>
				<g>
					<g id="Plus_52_">
						<g>
							<path fill="#D3D3D3" d="M53.2,62.2h-4.407v-4.158c0-0.347-0.298-0.628-0.666-0.628c-0.367,0-0.665,0.281-0.665,0.628V62.2         h-4.408c-0.367,0-0.665,0.282-0.665,0.628c0,0.347,0.298,0.627,0.665,0.627h4.408v4.159c0,0.348,0.298,0.627,0.665,0.627         c0.368,0,0.666-0.281,0.666-0.627v-4.159H53.2c0.368,0,0.666-0.28,0.666-0.627C53.866,62.482,53.568,62.2,53.2,62.2z"/>
						</g>
					</g>
				</g>
				<g>
				</g>
				<g>
				</g>
				<g>
				</g>
				<g>
				</g>
				<g>
				</g>
				<g>
				</g>
				<g>
				</g>
				<g>
				</g>
				<g>
				</g>
				<g>
				</g>
				<g>
				</g>
				<g>
				</g>
				<g>
				</g>
				<g>
				</g>
				<g>
				</g>
			</g>
			<g>
				<g>
					<g id="Plus_51_">
						<g>
							<path fill="#D3D3D3" d="M79.235,62.2h-4.407v-4.158c0-0.347-0.298-0.628-0.665-0.628c-0.368,0-0.666,0.281-0.666,0.628V62.2         H69.09c-0.368,0-0.666,0.282-0.666,0.628c0,0.347,0.298,0.627,0.666,0.627h4.407v4.159c0,0.348,0.298,0.627,0.666,0.627         c0.367,0,0.665-0.281,0.665-0.627v-4.159h4.407c0.368,0,0.666-0.28,0.666-0.627C79.9,62.482,79.603,62.2,79.235,62.2z"/>
						</g>
					</g>
				</g>
				<g>
				</g>
				<g>
				</g>
				<g>
				</g>
				<g>
				</g>
				<g>
				</g>
				<g>
				</g>
				<g>
				</g>
				<g>
				</g>
				<g>
				</g>
				<g>
				</g>
				<g>
				</g>
				<g>
				</g>
				<g>
				</g>
				<g>
				</g>
				<g>
				</g>
			</g>
		</g>
		<g>
			<g>
				<g>
					<g id="Plus_50_">
						<g>
							<path fill="#D3D3D3" d="M104.799,62.2h-4.407v-4.158c0-0.347-0.298-0.628-0.666-0.628c-0.367,0-0.666,0.281-0.666,0.628V62.2         h-4.407c-0.368,0-0.666,0.282-0.666,0.628c0,0.347,0.298,0.627,0.666,0.627h4.407v4.159c0,0.348,0.298,0.627,0.666,0.627         c0.368,0,0.666-0.281,0.666-0.627v-4.159h4.407c0.367,0,0.666-0.28,0.666-0.627C105.465,62.482,105.167,62.2,104.799,62.2z"/>
						</g>
					</g>
				</g>
				<g>
				</g>
				<g>
				</g>
				<g>
				</g>
				<g>
				</g>
				<g>
				</g>
				<g>
				</g>
				<g>
				</g>
				<g>
				</g>
				<g>
				</g>
				<g>
				</g>
				<g>
				</g>
				<g>
				</g>
				<g>
				</g>
				<g>
				</g>
				<g>
				</g>
			</g>
			<g>
				<g>
					<g id="Plus_49_">
						<g>
							<path fill="#D3D3D3" d="M91.782,62.2h-4.407v-4.158c0-0.347-0.298-0.628-0.666-0.628c-0.367,0-0.665,0.281-0.665,0.628V62.2         h-4.407c-0.367,0-0.665,0.282-0.665,0.628c0,0.347,0.298,0.627,0.665,0.627h4.407v4.159c0,0.348,0.298,0.627,0.665,0.627         c0.368,0,0.666-0.281,0.666-0.627v-4.159h4.407c0.368,0,0.666-0.28,0.666-0.627C92.447,62.482,92.149,62.2,91.782,62.2z"/>
						</g>
					</g>
				</g>
				<g>
				</g>
				<g>
				</g>
				<g>
				</g>
				<g>
				</g>
				<g>
				</g>
				<g>
				</g>
				<g>
				</g>
				<g>
				</g>
				<g>
				</g>
				<g>
				</g>
				<g>
				</g>
				<g>
				</g>
				<g>
				</g>
				<g>
				</g>
				<g>
				</g>
			</g>
			<g>
				<g>
					<g id="Plus_48_">
						<g>
							<path fill="#D3D3D3" d="M117.816,62.2h-4.407v-4.158c0-0.347-0.298-0.628-0.666-0.628c-0.368,0-0.665,0.281-0.665,0.628V62.2         h-4.408c-0.367,0-0.666,0.282-0.666,0.628c0,0.347,0.298,0.627,0.666,0.627h4.408v4.159c0,0.348,0.297,0.627,0.665,0.627         c0.367,0,0.666-0.281,0.666-0.627v-4.159h4.407c0.368,0,0.666-0.28,0.666-0.627C118.482,62.482,118.185,62.2,117.816,62.2z"/>
						</g>
					</g>
				</g>
				<g>
				</g>
				<g>
				</g>
				<g>
				</g>
				<g>
				</g>
				<g>
				</g>
				<g>
				</g>
				<g>
				</g>
				<g>
				</g>
				<g>
				</g>
				<g>
				</g>
				<g>
				</g>
				<g>
				</g>
				<g>
				</g>
				<g>
				</g>
				<g>
				</g>
			</g>
		</g>
	</g>
</g>
<g>
	<g>
		<g>
			<g>
				<g>
					<g id="Plus_71_">
						<g>
							<path fill="#D3D3D3" d="M27.15,35.451h-4.408v-4.158c0-0.346-0.298-0.628-0.665-0.628s-0.666,0.282-0.666,0.628v4.158h-4.407         c-0.367,0-0.665,0.282-0.665,0.628c0,0.347,0.298,0.628,0.665,0.628h4.407v4.158c0,0.348,0.298,0.628,0.666,0.628         s0.665-0.281,0.665-0.628v-4.158h4.408c0.368,0,0.665-0.281,0.665-0.628C27.815,35.732,27.518,35.451,27.15,35.451z"/>
						</g>
					</g>
				</g>
				<g>
				</g>
				<g>
				</g>
				<g>
				</g>
				<g>
				</g>
				<g>
				</g>
				<g>
				</g>
				<g>
				</g>
				<g>
				</g>
				<g>
				</g>
				<g>
				</g>
				<g>
				</g>
				<g>
				</g>
				<g>
				</g>
				<g>
				</g>
				<g>
				</g>
			</g>
			<g>
				<g>
					<g id="Plus_70_">
						<g>
							<path fill="#D3D3D3" d="M14.132,35.451H9.725v-4.158c0-0.346-0.298-0.628-0.666-0.628c-0.367,0-0.665,0.282-0.665,0.628         v4.158H3.987c-0.368,0-0.666,0.282-0.666,0.628c0,0.347,0.298,0.628,0.666,0.628h4.407v4.158         c0,0.348,0.298,0.628,0.665,0.628c0.368,0,0.666-0.281,0.666-0.628v-4.158h4.407c0.368,0,0.665-0.281,0.665-0.628         C14.797,35.732,14.5,35.451,14.132,35.451z"/>
						</g>
					</g>
				</g>
				<g>
				</g>
				<g>
				</g>
				<g>
				</g>
				<g>
				</g>
				<g>
				</g>
				<g>
				</g>
				<g>
				</g>
				<g>
				</g>
				<g>
				</g>
				<g>
				</g>
				<g>
				</g>
				<g>
				</g>
				<g>
				</g>
				<g>
				</g>
				<g>
				</g>
			</g>
			<g>
				<g>
					<g id="Plus_69_">
						<g>
							<path fill="#D3D3D3" d="M40.167,35.451H35.76v-4.158c0-0.346-0.297-0.628-0.665-0.628c-0.367,0-0.666,0.282-0.666,0.628         v4.158h-4.407c-0.367,0-0.665,0.282-0.665,0.628c0,0.347,0.298,0.628,0.665,0.628h4.407v4.158         c0,0.348,0.298,0.628,0.666,0.628c0.368,0,0.665-0.281,0.665-0.628v-4.158h4.407c0.368,0,0.666-0.281,0.666-0.628         C40.833,35.732,40.535,35.451,40.167,35.451z"/>
						</g>
					</g>
				</g>
				<g>
				</g>
				<g>
				</g>
				<g>
				</g>
				<g>
				</g>
				<g>
				</g>
				<g>
				</g>
				<g>
				</g>
				<g>
				</g>
				<g>
				</g>
				<g>
				</g>
				<g>
				</g>
				<g>
				</g>
				<g>
				</g>
				<g>
				</g>
				<g>
				</g>
			</g>
		</g>
		<g>
			<g>
				<g>
					<g id="Plus_68_">
						<g>
							<path fill="#D3D3D3" d="M65.731,35.451h-4.407v-4.158c0-0.346-0.298-0.628-0.665-0.628c-0.368,0-0.666,0.282-0.666,0.628         v4.158h-4.407c-0.368,0-0.666,0.282-0.666,0.628c0,0.347,0.298,0.628,0.666,0.628h4.407v4.158         c0,0.348,0.298,0.628,0.666,0.628c0.367,0,0.665-0.281,0.665-0.628v-4.158h4.407c0.368,0,0.666-0.281,0.666-0.628         C66.397,35.732,66.099,35.451,65.731,35.451z"/>
						</g>
					</g>
				</g>
				<g>
				</g>
				<g>
				</g>
				<g>
				</g>
				<g>
				</g>
				<g>
				</g>
				<g>
				</g>
				<g>
				</g>
				<g>
				</g>
				<g>
				</g>
				<g>
				</g>
				<g>
				</g>
				<g>
				</g>
				<g>
				</g>
				<g>
				</g>
				<g>
				</g>
			</g>
			<g>
				<g>
					<g id="Plus_67_">
						<g>
							<path fill="#D3D3D3" d="M52.714,35.451h-4.407v-4.158c0-0.346-0.298-0.628-0.666-0.628c-0.368,0-0.666,0.282-0.666,0.628         v4.158h-4.407c-0.367,0-0.665,0.282-0.665,0.628c0,0.347,0.298,0.628,0.665,0.628h4.407v4.158         c0,0.348,0.298,0.628,0.666,0.628c0.367,0,0.666-0.281,0.666-0.628v-4.158h4.407c0.367,0,0.665-0.281,0.665-0.628         C53.379,35.732,53.082,35.451,52.714,35.451z"/>
						</g>
					</g>
				</g>
				<g>
				</g>
				<g>
				</g>
				<g>
				</g>
				<g>
				</g>
				<g>
				</g>
				<g>
				</g>
				<g>
				</g>
				<g>
				</g>
				<g>
				</g>
				<g>
				</g>
				<g>
				</g>
				<g>
				</g>
				<g>
				</g>
				<g>
				</g>
				<g>
				</g>
			</g>
			<g>
				<g>
					<g id="Plus_66_">
						<g>
							<path fill="#D3D3D3" d="M78.749,35.451h-4.407v-4.158c0-0.346-0.298-0.628-0.666-0.628c-0.367,0-0.665,0.282-0.665,0.628         v4.158h-4.407c-0.368,0-0.666,0.282-0.666,0.628c0,0.347,0.298,0.628,0.666,0.628h4.407v4.158         c0,0.348,0.298,0.628,0.665,0.628c0.368,0,0.666-0.281,0.666-0.628v-4.158h4.407c0.368,0,0.666-0.281,0.666-0.628         C79.415,35.732,79.117,35.451,78.749,35.451z"/>
						</g>
					</g>
				</g>
				<g>
				</g>
				<g>
				</g>
				<g>
				</g>
				<g>
				</g>
				<g>
				</g>
				<g>
				</g>
				<g>
				</g>
				<g>
				</g>
				<g>
				</g>
				<g>
				</g>
				<g>
				</g>
				<g>
				</g>
				<g>
				</g>
				<g>
				</g>
				<g>
				</g>
			</g>
		</g>
	</g>
	<g>
		<g>
			<g>
				<g>
					<g id="Plus_65_">
						<g>
							<path fill="#D3D3D3" d="M66.058,35.451H61.65v-4.158c0-0.346-0.298-0.628-0.665-0.628c-0.368,0-0.665,0.282-0.665,0.628         v4.158h-4.408c-0.367,0-0.665,0.282-0.665,0.628c0,0.347,0.298,0.627,0.665,0.627h4.408v4.159         c0,0.348,0.297,0.627,0.665,0.627c0.367,0,0.665-0.28,0.665-0.627v-4.159h4.407c0.368,0,0.666-0.28,0.666-0.627         C66.723,35.733,66.425,35.451,66.058,35.451z"/>
						</g>
					</g>
				</g>
				<g>
				</g>
				<g>
				</g>
				<g>
				</g>
				<g>
				</g>
				<g>
				</g>
				<g>
				</g>
				<g>
				</g>
				<g>
				</g>
				<g>
				</g>
				<g>
				</g>
				<g>
				</g>
				<g>
				</g>
				<g>
				</g>
				<g>
				</g>
				<g>
				</g>
			</g>
			<g>
				<g>
					<g id="Plus_64_">
						<g>
							<path fill="#D3D3D3" d="M53.041,35.451h-4.407v-4.158c0-0.346-0.298-0.628-0.666-0.628c-0.367,0-0.665,0.282-0.665,0.628         v4.158h-4.407c-0.368,0-0.666,0.282-0.666,0.628c0,0.347,0.298,0.627,0.666,0.627h4.407v4.159         c0,0.348,0.298,0.627,0.665,0.627c0.368,0,0.666-0.28,0.666-0.627v-4.159h4.407c0.368,0,0.666-0.28,0.666-0.627         C53.706,35.733,53.408,35.451,53.041,35.451z"/>
						</g>
					</g>
				</g>
				<g>
				</g>
				<g>
				</g>
				<g>
				</g>
				<g>
				</g>
				<g>
				</g>
				<g>
				</g>
				<g>
				</g>
				<g>
				</g>
				<g>
				</g>
				<g>
				</g>
				<g>
				</g>
				<g>
				</g>
				<g>
				</g>
				<g>
				</g>
				<g>
				</g>
			</g>
			<g>
				<g>
					<g id="Plus_63_">
						<g>
							<path fill="#D3D3D3" d="M79.075,35.451h-4.407v-4.158c0-0.346-0.297-0.628-0.665-0.628s-0.666,0.282-0.666,0.628v4.158         h-4.407c-0.368,0-0.666,0.282-0.666,0.628c0,0.347,0.298,0.627,0.666,0.627h4.407v4.159c0,0.348,0.298,0.627,0.666,0.627         s0.665-0.28,0.665-0.627v-4.159h4.407c0.368,0,0.666-0.28,0.666-0.627C79.741,35.733,79.443,35.451,79.075,35.451z"/>
						</g>
					</g>
				</g>
				<g>
				</g>
				<g>
				</g>
				<g>
				</g>
				<g>
				</g>
				<g>
				</g>
				<g>
				</g>
				<g>
				</g>
				<g>
				</g>
				<g>
				</g>
				<g>
				</g>
				<g>
				</g>
				<g>
				</g>
				<g>
				</g>
				<g>
				</g>
				<g>
				</g>
			</g>
		</g>
		<g>
			<g>
				<g>
					<g id="Plus_62_">
						<g>
							<path fill="#D3D3D3" d="M104.64,35.451h-4.407v-4.158c0-0.346-0.298-0.628-0.666-0.628c-0.367,0-0.666,0.282-0.666,0.628         v4.158h-4.407c-0.368,0-0.666,0.282-0.666,0.628c0,0.347,0.298,0.627,0.666,0.627h4.407v4.159         c0,0.348,0.298,0.627,0.666,0.627c0.368,0,0.666-0.28,0.666-0.627v-4.159h4.407c0.367,0,0.666-0.28,0.666-0.627         C105.305,35.733,105.007,35.451,104.64,35.451z"/>
						</g>
					</g>
				</g>
				<g>
				</g>
				<g>
				</g>
				<g>
				</g>
				<g>
				</g>
				<g>
				</g>
				<g>
				</g>
				<g>
				</g>
				<g>
				</g>
				<g>
				</g>
				<g>
				</g>
				<g>
				</g>
				<g>
				</g>
				<g>
				</g>
				<g>
				</g>
				<g>
				</g>
			</g>
			<g>
				<g>
					<g id="Plus_61_">
						<g>
							<path fill="#D3D3D3" d="M91.622,35.451h-4.407v-4.158c0-0.346-0.298-0.628-0.666-0.628c-0.367,0-0.665,0.282-0.665,0.628         v4.158h-4.407c-0.367,0-0.665,0.282-0.665,0.628c0,0.347,0.298,0.627,0.665,0.627h4.407v4.159         c0,0.348,0.298,0.627,0.665,0.627c0.368,0,0.666-0.28,0.666-0.627v-4.159h4.407c0.368,0,0.666-0.28,0.666-0.627         C92.288,35.733,91.99,35.451,91.622,35.451z"/>
						</g>
					</g>
				</g>
				<g>
				</g>
				<g>
				</g>
				<g>
				</g>
				<g>
				</g>
				<g>
				</g>
				<g>
				</g>
				<g>
				</g>
				<g>
				</g>
				<g>
				</g>
				<g>
				</g>
				<g>
				</g>
				<g>
				</g>
				<g>
				</g>
				<g>
				</g>
				<g>
				</g>
			</g>
			<g>
				<g>
					<g id="Plus_60_">
						<g>
							<path fill="#D3D3D3" d="M117.657,35.451h-4.407v-4.158c0-0.346-0.298-0.628-0.666-0.628c-0.368,0-0.665,0.282-0.665,0.628         v4.158h-4.407c-0.368,0-0.666,0.282-0.666,0.628c0,0.347,0.298,0.627,0.666,0.627h4.407v4.159         c0,0.348,0.297,0.627,0.665,0.627c0.367,0,0.666-0.28,0.666-0.627v-4.159h4.407c0.368,0,0.666-0.28,0.666-0.627         C118.322,35.733,118.025,35.451,117.657,35.451z"/>
						</g>
					</g>
				</g>
				<g>
				</g>
				<g>
				</g>
				<g>
				</g>
				<g>
				</g>
				<g>
				</g>
				<g>
				</g>
				<g>
				</g>
				<g>
				</g>
				<g>
				</g>
				<g>
				</g>
				<g>
				</g>
				<g>
				</g>
				<g>
				</g>
				<g>
				</g>
				<g>
				</g>
			</g>
		</g>
	</g>
</g>
</svg>